<?xml version="1.0" encoding="UTF-8" standalone="no"?>
<!DOCTYPE svg PUBLIC "-//W3C//DTD SVG 1.1//EN"
 "http://www.w3.org/Graphics/SVG/1.1/DTD/svg11.dtd">
<!-- Generated by graphviz version 2.43.0 (0)
 -->
<!-- Title: A Pages: 1 -->
<svg width="84pt" height="137pt"
 viewBox="0.00 0.00 84.00 137.00" xmlns="http://www.w3.org/2000/svg" xmlns:xlink="http://www.w3.org/1999/xlink">

<svg id="main" version="1.1" xmlns="http://www.w3.org/2000/svg" xmlns:xlink="http://www.w3.org/1999/xlink" xml:space="preserve" onload="init(evt)">
<style type="text/css"><![CDATA[
.node, .edge {opacity: 0.7;}
.node.selected, .edge.selected {opacity: 1;}
.edge:hover path { stroke: red; }
.edge:hover polygon { stroke: red; fill: red; }
]]></style>
<script type="application/ecmascript" xlink:href="svg.min.js"/>
<svg id="graph" class="graph">
<g id="graph0" class="graph" transform="scale(1 1) rotate(0) translate(4 133)">
<title>A</title>
<!-- Node1 -->
<g id="Node000001" class="node">
<title>Node1</title>
<g id="a_Node000001"><a xlink:title=" ">
<polygon fill="#999999" stroke="#666666" points="52,-129 23,-129 23,-110 52,-110 52,-129"/>
<text text-anchor="middle" x="37.5" y="-117" font-family="Mononoki" font-size="10.00">A</text>
</a>
</g>
</g>
<!-- Node2 -->
<g id="Node000002" class="node">
<title>Node2</title>
<g id="a_Node000002"><a xlink:href="classC.html" target="_top" xlink:title=" ">
<polygon fill="white" stroke="#bfbfbf" points="29,-74 0,-74 0,-55 29,-55 29,-74"/>
<text text-anchor="middle" x="14.5" y="-62" font-family="Mononoki" font-size="10.00">C</text>
</a>
</g>
</g>
<!-- Node1&#45;&gt;Node2 -->
<g id="edge1_Node000001_Node000002" class="edge">
<title>Node1&#45;&gt;Node2</title>
<g id="a_edge1_Node000001_Node000002"><a xlink:title=" ">
<path fill="none" stroke="#63b8ff" d="M29.7,-100.53C25.82,-91.6 21.32,-81.22 18.23,-74.09"/>
<polygon fill="#63b8ff" stroke="#63b8ff" points="26.51,-101.97 33.7,-109.75 32.93,-99.18 26.51,-101.97"/>
</a>
</g>
</g>
<!-- Node3 -->
<g id="Node000003" class="node">
<title>Node3</title>
<g id="a_Node000003"><a xlink:href="classD.html" target="_top" xlink:title=" ">
<polygon fill="white" stroke="#bfbfbf" points="76,-74 47,-74 47,-55 76,-55 76,-74"/>
<text text-anchor="middle" x="61.5" y="-62" font-family="Mononoki" font-size="10.00">D</text>
</a>
</g>
</g>
<!-- Node1&#45;&gt;Node3 -->
<g id="edge2_Node000001_Node000003" class="edge">
<title>Node1&#45;&gt;Node3</title>
<g id="a_edge2_Node000001_Node000003"><a xlink:title=" ">
<path fill="none" stroke="darkgreen" d="M45.64,-100.53C49.68,-91.6 54.38,-81.22 57.61,-74.09"/>
<polygon fill="darkgreen" stroke="darkgreen" points="42.4,-99.19 41.46,-109.75 48.78,-102.08 42.4,-99.19"/>
</a>
</g>
</g>
<!-- Node4 -->
<g id="Node000004" class="node">
<title>Node4</title>
<g id="a_Node000004"><a xlink:href="classE.html" target="_top" xlink:title=" ">
<polygon fill="white" stroke="#bfbfbf" points="76,-19 47,-19 47,0 76,0 76,-19"/>
<text text-anchor="middle" x="61.5" y="-7" font-family="Mononoki" font-size="10.00">E</text>
</a>
</g>
</g>
<!-- Node3&#45;&gt;Node4 -->
<g id="edge3_Node000003_Node000004" class="edge">
<title>Node3&#45;&gt;Node4</title>
<g id="a_edge3_Node000003_Node000004"><a xlink:title=" ">
<path fill="none" stroke="#63b8ff" d="M61.5,-44.66C61.5,-35.93 61.5,-25.99 61.5,-19.09"/>
<polygon fill="#63b8ff" stroke="#63b8ff" points="58,-44.75 61.5,-54.75 65,-44.75 58,-44.75"/>
</a>
</g>
</g>
</g>
</svg>
</svg>

<style type='text/css'>
<![CDATA[
[data-mouse-over-selected='false'] { opacity: 0.7; }
[data-mouse-over-selected='true']  { opacity: 1.0; }
]]>
</style>
<script type="application/ecmascript"><![CDATA[
document.addEventListener('DOMContentLoaded', (event) => {
  highlightEdges();
  highlightAdjacentNodes();
});
]]></script>
</svg>
