<?xml version="1.0" encoding="UTF-8" standalone="no"?>
<!DOCTYPE svg PUBLIC "-//W3C//DTD SVG 1.1//EN"
 "http://www.w3.org/Graphics/SVG/1.1/DTD/svg11.dtd">
<!-- Generated by graphviz version 2.43.0 (0)
 -->
<!-- Title: D Pages: 1 -->
<svg width="119pt" height="215pt"
 viewBox="0.00 0.00 118.70 215.00" xmlns="http://www.w3.org/2000/svg" xmlns:xlink="http://www.w3.org/1999/xlink">
<g id="graph0" class="graph" transform="scale(1 1) rotate(0) translate(4 211)">
<title>D</title>
<!-- Node1 -->
<g id="Node000001" class="node">
<title>Node1</title>
<g id="a_Node000001"><a xlink:title=" ">
<polygon fill="#999999" stroke="#666666" points="33.7,-85 4.7,-85 4.7,-66 33.7,-66 33.7,-85"/>
<text text-anchor="middle" x="19.2" y="-73" font-family="Mononoki" font-size="10.00">D</text>
</a>
</g>
</g>
<!-- Node4 -->
<g id="Node000004" class="node">
<title>Node4</title>
<g id="a_Node000004"><a xlink:href="classC.html" target="_top" xlink:title=" ">
<polygon fill="white" stroke="#bfbfbf" points="59.7,-19 30.7,-19 30.7,0 59.7,0 59.7,-19"/>
<text text-anchor="middle" x="45.2" y="-7" font-family="Mononoki" font-size="10.00">C</text>
</a>
</g>
</g>
<!-- Node1&#45;&gt;Node4 -->
<g id="edge7_Node000004_Node000001" class="edge">
<title>Node1&#45;&gt;Node4</title>
<g id="a_edge7_Node000004_Node000001"><a xlink:title=" ">
<path fill="none" stroke="#9a32cd" stroke-dasharray="5,2" d="M4.71,-57.75C0.78,-51.16 -1.49,-43.61 2.2,-37 8.18,-26.28 20.48,-19.36 30.4,-15.29"/>
<polygon fill="#9a32cd" stroke="#9a32cd" points="1.98,-59.95 10.7,-65.96 7.63,-55.82 1.98,-59.95"/>
</a>
</g>
<text text-anchor="middle" x="14.7" y="-40" font-family="Mononoki" font-size="10.00" fill="grey"> m_d</text>
</g>
<!-- Node2 -->
<g id="Node000002" class="node">
<title>Node2</title>
<g id="a_Node000002"><a xlink:href="classA.html" target="_top" xlink:title=" ">
<polygon fill="white" stroke="#bfbfbf" points="55.7,-207 26.7,-207 26.7,-188 55.7,-188 55.7,-207"/>
<text text-anchor="middle" x="41.2" y="-195" font-family="Mononoki" font-size="10.00">A</text>
</a>
</g>
</g>
<!-- Node2&#45;&gt;Node1 -->
<g id="edge1_Node000001_Node000002" class="edge">
<title>Node2&#45;&gt;Node1</title>
<g id="a_edge1_Node000001_Node000002"><a xlink:title=" ">
<path fill="none" stroke="darkgreen" d="M31.35,-178.82C26,-168.21 19.94,-154.24 17.2,-141 13.16,-121.47 15.7,-97.92 17.63,-85.38"/>
<polygon fill="darkgreen" stroke="darkgreen" points="28.34,-180.64 36.12,-187.83 34.53,-177.36 28.34,-180.64"/>
</a>
</g>
</g>
<!-- Node2&#45;&gt;Node2 -->
<g id="edge2_Node000002_Node000002" class="edge">
<title>Node2&#45;&gt;Node2</title>
<g id="a_edge2_Node000002_Node000002"><a xlink:title=" ">
<path fill="none" stroke="#9a32cd" stroke-dasharray="5,2" d="M66.25,-203.13C70.64,-202.38 73.7,-200.51 73.7,-197.5 73.7,-192.44 65.02,-190.58 55.91,-191.92"/>
<polygon fill="#9a32cd" stroke="#9a32cd" points="65.92,-199.63 55.91,-203.08 65.89,-206.63 65.92,-199.63"/>
</a>
</g>
<text text-anchor="middle" x="92.2" y="-195" font-family="Mononoki" font-size="10.00" fill="grey"> m_self</text>
</g>
<!-- Node3 -->
<g id="Node000003" class="node">
<title>Node3</title>
<g id="a_Node000003"><a xlink:href="classB.html" target="_top" xlink:title=" ">
<polygon fill="white" stroke="#bfbfbf" points="55.7,-141 26.7,-141 26.7,-122 55.7,-122 55.7,-141"/>
<text text-anchor="middle" x="41.2" y="-129" font-family="Mononoki" font-size="10.00">B</text>
</a>
</g>
</g>
<!-- Node2&#45;&gt;Node3 -->
<g id="edge4_Node000003_Node000002" class="edge">
<title>Node2&#45;&gt;Node3</title>
<g id="a_edge4_Node000003_Node000002"><a xlink:title=" ">
<path fill="none" stroke="#9a32cd" stroke-dasharray="5,2" d="M41.2,-177.58C41.2,-165.63 41.2,-150.72 41.2,-141.41"/>
<polygon fill="#9a32cd" stroke="#9a32cd" points="37.7,-177.87 41.2,-187.87 44.7,-177.87 37.7,-177.87"/>
</a>
</g>
<text text-anchor="middle" x="53.7" y="-162" font-family="Mononoki" font-size="10.00" fill="grey"> m_a</text>
</g>
<!-- Node2&#45;&gt;Node4 -->
<g id="edge6_Node000004_Node000002" class="edge">
<title>Node2&#45;&gt;Node4</title>
<g id="a_edge6_Node000004_Node000002"><a xlink:title=" ">
<path fill="none" stroke="#63b8ff" d="M62.52,-181.07C65.64,-177.79 68.4,-174.07 70.2,-170 75.56,-157.83 116.33,-201.47 62.2,-37 60.08,-30.56 56.03,-24.14 52.41,-19.24"/>
<polygon fill="#63b8ff" stroke="#63b8ff" points="60.01,-178.62 54.87,-187.89 64.66,-183.85 60.01,-178.62"/>
</a>
</g>
</g>
<!-- Node3&#45;&gt;Node1 -->
<g id="edge3_Node000001_Node000003" class="edge">
<title>Node3&#45;&gt;Node1</title>
<g id="a_edge3_Node000001_Node000003"><a xlink:title=" ">
<path fill="none" stroke="#8b1a1a" d="M33.74,-112.19C30.03,-103.09 25.72,-92.51 22.76,-85.25"/>
<polygon fill="#8b1a1a" stroke="#8b1a1a" points="30.55,-113.64 37.57,-121.58 37.04,-111 30.55,-113.64"/>
</a>
</g>
</g>
<!-- Node4&#45;&gt;Node1 -->
<g id="edge5_Node000001_Node000004" class="edge">
<title>Node4&#45;&gt;Node1</title>
<g id="a_edge5_Node000001_Node000004"><a xlink:title=" ">
<path fill="none" stroke="#9a32cd" stroke-dasharray="5,2" d="M37.67,-29.03C32.74,-41.17 26.52,-56.47 22.71,-65.87"/>
<polygon fill="#9a32cd" stroke="#9a32cd" points="41.06,-29.99 41.58,-19.41 34.58,-27.35 41.06,-29.99"/>
</a>
</g>
<text text-anchor="middle" x="46.2" y="-40" font-family="Mononoki" font-size="10.00" fill="grey"> m_c</text>
</g>
</g>
</svg>
