<?xml version="1.0" encoding="UTF-8" standalone="no"?>
<!DOCTYPE svg PUBLIC "-//W3C//DTD SVG 1.1//EN"
 "http://www.w3.org/Graphics/SVG/1.1/DTD/svg11.dtd">
<!-- Generated by graphviz version 2.43.0 (0)
 -->
<!-- Title: vector_clone Pages: 1 -->
<svg width="237pt" height="64pt"
 viewBox="0.00 0.00 237.00 64.00" xmlns="http://www.w3.org/2000/svg" xmlns:xlink="http://www.w3.org/1999/xlink">
<g id="graph0" class="graph" transform="scale(1 1) rotate(0) translate(4 60)">
<title>vector_clone</title>
<!-- Node1 -->
<g id="Node000001" class="node">
<title>Node1</title>
<g id="a_Node000001"><a xlink:title="Duplicate vector.">
<polygon fill="#999999" stroke="#666666" points="79,-37 0,-37 0,-18 79,-18 79,-37"/>
<text text-anchor="middle" x="39.5" y="-25" font-family="Mononoki" font-size="10.00">vector_clone</text>
</a>
</g>
</g>
<!-- Node2 -->
<g id="Node000002" class="node">
<title>Node2</title>
<g id="a_Node000002"><a xlink:href="vector_8c.html#a340abc280ca3260619357acb41f2aa98" target="_top" xlink:title=" ">
<polygon fill="white" stroke="#666666" points="229,-56 115,-56 115,-37 229,-37 229,-56"/>
<text text-anchor="middle" x="172" y="-44" font-family="Mononoki" font-size="10.00">calculate_alloc_size</text>
</a>
</g>
</g>
<!-- Node1&#45;&gt;Node2 -->
<g id="edge1_Node000001_Node000002" class="edge">
<title>Node1&#45;&gt;Node2</title>
<g id="a_edge1_Node000001_Node000002"><a xlink:title=" ">
<path fill="none" stroke="#63b8ff" d="M79.3,-33.15C87.29,-34.31 95.92,-35.57 104.58,-36.83"/>
<polygon fill="#63b8ff" stroke="#63b8ff" points="104.32,-40.33 114.72,-38.31 105.33,-33.4 104.32,-40.33"/>
</a>
</g>
</g>
<!-- Node3 -->
<g id="Node000003" class="node">
<title>Node3</title>
<g id="a_Node000003"><a xlink:href="group__Allocation.html#gac06d4923e85171dfa1e3fae4f141b658" target="_top" xlink:title="Allocates memory chunk of alloc_size.">
<polygon fill="white" stroke="#666666" points="210,-19 134,-19 134,0 210,0 210,-19"/>
<text text-anchor="middle" x="172" y="-7" font-family="Mononoki" font-size="10.00">vector_alloc</text>
</a>
</g>
</g>
<!-- Node1&#45;&gt;Node3 -->
<g id="edge2_Node000001_Node000003" class="edge">
<title>Node1&#45;&gt;Node3</title>
<g id="a_edge2_Node000001_Node000003"><a xlink:title=" ">
<path fill="none" stroke="#63b8ff" d="M79.3,-22.15C93.21,-20.23 109.04,-18.05 123.59,-16.04"/>
<polygon fill="#63b8ff" stroke="#63b8ff" points="124.49,-19.45 133.92,-14.62 123.53,-12.51 124.49,-19.45"/>
</a>
</g>
</g>
</g>
</svg>
