<?xml version="1.0" encoding="UTF-8" standalone="no"?>
<!DOCTYPE svg PUBLIC "-//W3C//DTD SVG 1.1//EN"
 "http://www.w3.org/Graphics/SVG/1.1/DTD/svg11.dtd">
<!-- Generated by graphviz version 2.43.0 (0)
 -->
<!-- Title: vector_clone Pages: 1 -->
<svg width="237pt" height="101pt"
 viewBox="0.00 0.00 237.00 101.00" xmlns="http://www.w3.org/2000/svg" xmlns:xlink="http://www.w3.org/1999/xlink">
<g id="graph0" class="graph" transform="scale(1 1) rotate(0) translate(4 97)">
<title>vector_clone</title>
<!-- Node1 -->
<g id="Node000001" class="node">
<title>Node1</title>
<g id="a_Node000001"><a xlink:title="Duplicates a vector.">
<polygon fill="#999999" stroke="#666666" points="79,-56 0,-56 0,-37 79,-37 79,-56"/>
<text text-anchor="middle" x="39.5" y="-44" font-family="Mononoki" font-size="10.00">vector_clone</text>
</a>
</g>
</g>
<!-- Node2 -->
<g id="Node000002" class="node">
<title>Node2</title>
<g id="a_Node000002"><a xlink:href="vector_8c.html#a340abc280ca3260619357acb41f2aa98" target="_top" xlink:title="Calculates allocation size for the vector.">
<polygon fill="white" stroke="#666666" points="229,-93 115,-93 115,-74 229,-74 229,-93"/>
<text text-anchor="middle" x="172" y="-81" font-family="Mononoki" font-size="10.00">calculate_alloc_size</text>
</a>
</g>
</g>
<!-- Node1&#45;&gt;Node2 -->
<g id="edge1_Node000001_Node000002" class="edge">
<title>Node1&#45;&gt;Node2</title>
<g id="a_edge1_Node000001_Node000002"><a xlink:title=" ">
<path fill="none" stroke="#63b8ff" d="M74.11,-56.03C90.27,-60.61 109.85,-66.16 127.16,-71.07"/>
<polygon fill="#63b8ff" stroke="#63b8ff" points="126.48,-74.51 137.05,-73.88 128.39,-67.78 126.48,-74.51"/>
</a>
</g>
</g>
<!-- Node3 -->
<g id="Node000003" class="node">
<title>Node3</title>
<g id="a_Node000003"><a xlink:href="vector_8c.html#a4511ed374861bb6242bc2b6791012ba4" target="_top" xlink:title="Access allocator region of the vector.">
<polygon fill="white" stroke="#666666" points="212,-56 132,-56 132,-37 212,-37 212,-56"/>
<text text-anchor="middle" x="172" y="-44" font-family="Mononoki" font-size="10.00">get_allocator</text>
</a>
</g>
</g>
<!-- Node1&#45;&gt;Node3 -->
<g id="edge2_Node000001_Node000003" class="edge">
<title>Node1&#45;&gt;Node3</title>
<g id="a_edge2_Node000001_Node000003"><a xlink:title=" ">
<path fill="none" stroke="#63b8ff" d="M79.3,-46.5C92.47,-46.5 107.38,-46.5 121.28,-46.5"/>
<polygon fill="#63b8ff" stroke="#63b8ff" points="121.67,-50 131.67,-46.5 121.67,-43 121.67,-50"/>
</a>
</g>
</g>
<!-- Node4 -->
<g id="Node000004" class="node">
<title>Node4</title>
<g id="a_Node000004"><a xlink:href="group__Allocation.html#gac06d4923e85171dfa1e3fae4f141b658" target="_top" xlink:title="Allocates memory chunk of alloc_size.">
<polygon fill="white" stroke="#666666" points="210,-19 134,-19 134,0 210,0 210,-19"/>
<text text-anchor="middle" x="172" y="-7" font-family="Mononoki" font-size="10.00">vector_alloc</text>
</a>
</g>
</g>
<!-- Node1&#45;&gt;Node4 -->
<g id="edge3_Node000001_Node000004" class="edge">
<title>Node1&#45;&gt;Node4</title>
<g id="a_edge3_Node000001_Node000004"><a xlink:title=" ">
<path fill="none" stroke="#63b8ff" d="M74.11,-36.97C90.27,-32.39 109.85,-26.84 127.16,-21.93"/>
<polygon fill="#63b8ff" stroke="#63b8ff" points="128.39,-25.22 137.05,-19.12 126.48,-18.49 128.39,-25.22"/>
</a>
</g>
</g>
</g>
</svg>
