<?xml version="1.0" encoding="UTF-8" standalone="no"?>
<!DOCTYPE svg PUBLIC "-//W3C//DTD SVG 1.1//EN"
 "http://www.w3.org/Graphics/SVG/1.1/DTD/svg11.dtd">
<!-- Generated by graphviz version 2.43.0 (0)
 -->
<!-- Title: vector_linear_find Pages: 1 -->
<svg width="359pt" height="27pt"
 viewBox="0.00 0.00 359.00 27.00" xmlns="http://www.w3.org/2000/svg" xmlns:xlink="http://www.w3.org/1999/xlink">
<g id="graph0" class="graph" transform="scale(1 1) rotate(0) translate(4 23)">
<title>vector_linear_find</title>
<!-- Node1 -->
<g id="Node000001" class="node">
<title>Node1</title>
<g id="a_Node000001"><a xlink:title="Simple linear search for unordered data.">
<polygon fill="#999999" stroke="#666666" points="104,-19 0,-19 0,0 104,0 104,-19"/>
<text text-anchor="middle" x="52" y="-7" font-family="Mononoki" font-size="10.00">vector_linear_find</text>
</a>
</g>
</g>
<!-- Node2 -->
<g id="Node000002" class="node">
<title>Node2</title>
<g id="a_Node000002"><a xlink:href="group__Elements.html#ga9437d9506a3b2799f595c88b82f160b3" target="_top" xlink:title="Returns pointer for the element at index.">
<polygon fill="white" stroke="#666666" points="208,-19 140,-19 140,0 208,0 208,-19"/>
<text text-anchor="middle" x="174" y="-7" font-family="Mononoki" font-size="10.00">vector_get</text>
</a>
</g>
</g>
<!-- Node1&#45;&gt;Node2 -->
<g id="edge1_Node000001_Node000002" class="edge">
<title>Node1&#45;&gt;Node2</title>
<g id="a_edge1_Node000001_Node000002"><a xlink:title=" ">
<path fill="none" stroke="#63b8ff" d="M104.24,-9.5C112.75,-9.5 121.5,-9.5 129.79,-9.5"/>
<polygon fill="#63b8ff" stroke="#63b8ff" points="129.98,-13 139.98,-9.5 129.98,-6 129.98,-13"/>
</a>
</g>
</g>
<!-- Node3 -->
<g id="Node000003" class="node">
<title>Node3</title>
<g id="a_Node000003"><a xlink:href="group__Extension.html#ga435ecb8dca435624d8d277feb6b2cc80" target="_top" xlink:title="Compute offset from vector_t::memory to first element.">
<polygon fill="white" stroke="#666666" points="351,-19 244,-19 244,0 351,0 351,-19"/>
<text text-anchor="middle" x="297.5" y="-7" font-family="Mononoki" font-size="10.00">vector_data_offset</text>
</a>
</g>
</g>
<!-- Node2&#45;&gt;Node3 -->
<g id="edge2_Node000002_Node000003" class="edge">
<title>Node2&#45;&gt;Node3</title>
<g id="a_edge2_Node000002_Node000003"><a xlink:title=" ">
<path fill="none" stroke="#63b8ff" d="M208.2,-9.5C216.08,-9.5 224.74,-9.5 233.47,-9.5"/>
<polygon fill="#63b8ff" stroke="#63b8ff" points="233.69,-13 243.69,-9.5 233.69,-6 233.69,-13"/>
</a>
</g>
</g>
</g>
</svg>
