<?xml version="1.0" encoding="UTF-8" standalone="no"?>
<!DOCTYPE svg PUBLIC "-//W3C//DTD SVG 1.1//EN"
 "http://www.w3.org/Graphics/SVG/1.1/DTD/svg11.dtd">
<!-- Generated by graphviz version 2.43.0 (0)
 -->
<!-- Title: vector_move Pages: 1 -->
<svg width="335pt" height="27pt"
 viewBox="0.00 0.00 335.00 27.00" xmlns="http://www.w3.org/2000/svg" xmlns:xlink="http://www.w3.org/1999/xlink">
<g id="graph0" class="graph" transform="scale(1 1) rotate(0) translate(4 23)">
<title>vector_move</title>
<!-- Node1 -->
<g id="Node000001" class="node">
<title>Node1</title>
<g id="a_Node000001"><a xlink:title="Moves range of the vector elements to another location.">
<polygon fill="#999999" stroke="#666666" points="80,-19 0,-19 0,0 80,0 80,-19"/>
<text text-anchor="middle" x="40" y="-7" font-family="Mononoki" font-size="10.00">vector_move</text>
</a>
</g>
</g>
<!-- Node2 -->
<g id="Node000002" class="node">
<title>Node2</title>
<g id="a_Node000002"><a xlink:href="group__Vector__API.html#ga9437d9506a3b2799f595c88b82f160b3" target="_top" xlink:title="Returns pointer for the element at index.">
<polygon fill="white" stroke="#666666" points="184,-19 116,-19 116,0 184,0 184,-19"/>
<text text-anchor="middle" x="150" y="-7" font-family="Mononoki" font-size="10.00">vector_get</text>
</a>
</g>
</g>
<!-- Node1&#45;&gt;Node2 -->
<g id="edge1_Node000001_Node000002" class="edge">
<title>Node1&#45;&gt;Node2</title>
<g id="a_edge1_Node000001_Node000002"><a xlink:title=" ">
<path fill="none" stroke="#63b8ff" d="M80.3,-9.5C88.61,-9.5 97.44,-9.5 105.89,-9.5"/>
<polygon fill="#63b8ff" stroke="#63b8ff" points="105.95,-13 115.95,-9.5 105.95,-6 105.95,-13"/>
</a>
</g>
</g>
<!-- Node3 -->
<g id="Node000003" class="node">
<title>Node3</title>
<g id="a_Node000003"><a xlink:href="group__Vector__API.html#ga435ecb8dca435624d8d277feb6b2cc80" target="_top" xlink:title="Access vector_t::data_offset property for extensions.">
<polygon fill="white" stroke="#666666" points="327,-19 220,-19 220,0 327,0 327,-19"/>
<text text-anchor="middle" x="273.5" y="-7" font-family="Mononoki" font-size="10.00">vector_data_offset</text>
</a>
</g>
</g>
<!-- Node2&#45;&gt;Node3 -->
<g id="edge2_Node000002_Node000003" class="edge">
<title>Node2&#45;&gt;Node3</title>
<g id="a_edge2_Node000002_Node000003"><a xlink:title=" ">
<path fill="none" stroke="#63b8ff" d="M184.2,-9.5C192.08,-9.5 200.74,-9.5 209.47,-9.5"/>
<polygon fill="#63b8ff" stroke="#63b8ff" points="209.69,-13 219.69,-9.5 209.69,-6 209.69,-13"/>
</a>
</g>
</g>
</g>
</svg>
