<?xml version="1.0" encoding="UTF-8" standalone="no"?>
<!DOCTYPE svg PUBLIC "-//W3C//DTD SVG 1.1//EN"
 "http://www.w3.org/Graphics/SVG/1.1/DTD/svg11.dtd">
<!-- Generated by graphviz version 2.43.0 (0)
 -->
<!-- Title: Vector API Pages: 1 -->
<svg width="176pt" height="286pt"
 viewBox="0.00 0.00 176.00 286.00" xmlns="http://www.w3.org/2000/svg" xmlns:xlink="http://www.w3.org/1999/xlink">

<svg id="main" version="1.1" xmlns="http://www.w3.org/2000/svg" xmlns:xlink="http://www.w3.org/1999/xlink" xml:space="preserve" onload="init(evt)">
<style type="text/css"><![CDATA[
.node, .edge {opacity: 0.7;}
.node.selected, .edge.selected {opacity: 1;}
.edge:hover path { stroke: red; }
.edge:hover polygon { stroke: red; fill: red; }
]]></style>
<script type="application/ecmascript" xlink:href="svg.min.js"/>
<svg id="graph" class="graph">
<g id="graph0" class="graph" transform="scale(1 1) rotate(0) translate(4 282)">
<title>Vector API</title>
<!-- Node8 -->
<g id="Node000008" class="node">
<title>Node8</title>
<g id="a_Node000008"><a xlink:href="group__Allocation.html" target="_top" xlink:title="Allocator functions.">
<polygon fill="white" stroke="#666666" points="167.5,-278 102.5,-278 102.5,-259 167.5,-259 167.5,-278"/>
<text text-anchor="middle" x="135" y="-266" font-family="Mononoki" font-size="10.00">Allocation</text>
</a>
</g>
</g>
<!-- Node2 -->
<g id="Node000002" class="node">
<title>Node2</title>
<g id="a_Node000002"><a xlink:href="group__Callbacks.html" target="_top" xlink:title="Callbacks used by various API funcions.">
<polygon fill="white" stroke="#666666" points="167,-241 103,-241 103,-222 167,-222 167,-241"/>
<text text-anchor="middle" x="135" y="-229" font-family="Mononoki" font-size="10.00">Callbacks</text>
</a>
</g>
</g>
<!-- Node7 -->
<g id="Node000007" class="node">
<title>Node7</title>
<g id="a_Node000007"><a xlink:href="group__Elements.html" target="_top" xlink:title="Access and manipulate elements of a vector.">
<polygon fill="white" stroke="#666666" points="166,-204 104,-204 104,-185 166,-185 166,-204"/>
<text text-anchor="middle" x="135" y="-192" font-family="Mononoki" font-size="10.00">Elements</text>
</a>
</g>
</g>
<!-- Node4 -->
<g id="Node000004" class="node">
<title>Node4</title>
<g id="a_Node000004"><a xlink:href="group__Extension.html" target="_top" xlink:title="Support for derived classes.">
<polygon fill="white" stroke="#666666" points="167.5,-167 102.5,-167 102.5,-148 167.5,-148 167.5,-167"/>
<text text-anchor="middle" x="135" y="-155" font-family="Mononoki" font-size="10.00">Extension</text>
</a>
</g>
</g>
<!-- Node3 -->
<g id="Node000003" class="node">
<title>Node3</title>
<g id="a_Node000003"><a xlink:href="group__Lifetime.html" target="_top" xlink:title="Constructors/Destructors.">
<polygon fill="white" stroke="#666666" points="163.5,-130 106.5,-130 106.5,-111 163.5,-111 163.5,-130"/>
<text text-anchor="middle" x="135" y="-118" font-family="Mononoki" font-size="10.00">Lifetime</text>
</a>
</g>
</g>
<!-- Node5 -->
<g id="Node000005" class="node">
<title>Node5</title>
<g id="a_Node000005"><a xlink:href="group__Properties.html" target="_top" xlink:title="Access properties of a vector.">
<polygon fill="white" stroke="#666666" points="168,-93 102,-93 102,-74 168,-74 168,-93"/>
<text text-anchor="middle" x="135" y="-81" font-family="Mononoki" font-size="10.00">Properties</text>
</a>
</g>
</g>
<!-- Node6 -->
<g id="Node000006" class="node">
<title>Node6</title>
<g id="a_Node000006"><a xlink:href="group__Searches.html" target="_top" xlink:title="Methods for querying the vector.">
<polygon fill="white" stroke="#666666" points="165.5,-56 104.5,-56 104.5,-37 165.5,-37 165.5,-56"/>
<text text-anchor="middle" x="135" y="-44" font-family="Mononoki" font-size="10.00">Searches</text>
</a>
</g>
</g>
<!-- Node9 -->
<g id="Node000009" class="node">
<title>Node9</title>
<g id="a_Node000009"><a xlink:href="group__Utilities.html" target="_top" xlink:title="Commonly used internally and by inherited classes.">
<polygon fill="white" stroke="#666666" points="162.5,-19 107.5,-19 107.5,0 162.5,0 162.5,-19"/>
<text text-anchor="middle" x="135" y="-7" font-family="Mononoki" font-size="10.00">Utilities</text>
</a>
</g>
</g>
<!-- Node1 -->
<g id="Node000001" class="node">
<title>Node1</title>
<g id="a_Node000001"><a xlink:title="Main vectors methods.">
<polygon fill="#999999" stroke="#666666" points="66,-148 0,-148 0,-129 66,-129 66,-148"/>
<text text-anchor="middle" x="33" y="-136" font-family="Mononoki" font-size="10.00">Vector API</text>
</a>
</g>
</g>
<!-- Node1&#45;&gt;Node8 -->
<g id="edge7" class="edge">
<title>Node1&#45;&gt;Node8</title>
<path fill="none" stroke="black" d="M41.82,-157.41C52.52,-181.44 73.66,-223.08 102,-250.5 105.3,-253.69 109.27,-256.51 113.28,-258.92"/>
<polygon fill="black" stroke="black" points="44.94,-155.8 37.77,-148 38.51,-158.57 44.94,-155.8"/>
</g>
<!-- Node1&#45;&gt;Node2 -->
<g id="edge1" class="edge">
<title>Node1&#45;&gt;Node2</title>
<path fill="none" stroke="black" d="M47.4,-156.3C60.2,-172.52 80.67,-196.48 102,-213.5 105.89,-216.6 110.38,-219.48 114.74,-221.99"/>
<polygon fill="black" stroke="black" points="50,-153.94 41.11,-148.17 44.46,-158.23 50,-153.94"/>
</g>
<!-- Node1&#45;&gt;Node7 -->
<g id="edge6" class="edge">
<title>Node1&#45;&gt;Node7</title>
<path fill="none" stroke="black" d="M60.21,-153.18C78.07,-163.18 101.22,-176.14 116.78,-184.86"/>
<polygon fill="black" stroke="black" points="61.85,-150.09 51.42,-148.25 58.43,-156.19 61.85,-150.09"/>
</g>
<!-- Node1&#45;&gt;Node4 -->
<g id="edge3" class="edge">
<title>Node1&#45;&gt;Node4</title>
<path fill="none" stroke="black" d="M76.2,-146.52C84.91,-148.17 93.95,-149.89 102.21,-151.46"/>
<polygon fill="black" stroke="black" points="76.67,-143.04 66.19,-144.62 75.36,-149.92 76.67,-143.04"/>
</g>
<!-- Node1&#45;&gt;Node3 -->
<g id="edge2" class="edge">
<title>Node1&#45;&gt;Node3</title>
<path fill="none" stroke="black" d="M76.15,-130.91C86.31,-129.08 96.92,-127.17 106.24,-125.5"/>
<polygon fill="black" stroke="black" points="75.41,-127.49 66.19,-132.71 76.65,-134.38 75.41,-127.49"/>
</g>
<!-- Node1&#45;&gt;Node5 -->
<g id="edge4" class="edge">
<title>Node1&#45;&gt;Node5</title>
<path fill="none" stroke="black" d="M60.64,-123.85C78.32,-114.13 101.01,-101.64 116.45,-93.16"/>
<polygon fill="black" stroke="black" points="58.49,-121.03 51.42,-128.92 61.87,-127.17 58.49,-121.03"/>
</g>
<!-- Node1&#45;&gt;Node6 -->
<g id="edge5" class="edge">
<title>Node1&#45;&gt;Node6</title>
<path fill="none" stroke="black" d="M48,-120.81C60.96,-105.12 81.29,-82.19 102,-65.5 106.23,-62.09 111.12,-58.88 115.8,-56.09"/>
<polygon fill="black" stroke="black" points="45.19,-118.72 41.61,-128.69 50.63,-123.13 45.19,-118.72"/>
</g>
<!-- Node1&#45;&gt;Node9 -->
<g id="edge8" class="edge">
<title>Node1&#45;&gt;Node9</title>
<path fill="none" stroke="black" d="M42.17,-119.68C53.11,-96.14 74.37,-55.64 102,-28.5 105.6,-24.97 109.97,-21.83 114.32,-19.16"/>
<polygon fill="black" stroke="black" points="38.92,-118.36 38.01,-128.92 45.31,-121.24 38.92,-118.36"/>
</g>
</g>
</svg>
</svg>

<style type='text/css'>
<![CDATA[
[data-mouse-over-selected='false'] { opacity: 0.7; }
[data-mouse-over-selected='true']  { opacity: 1.0; }
]]>
</style>
<script type="application/ecmascript"><![CDATA[
document.addEventListener('DOMContentLoaded', (event) => {
  highlightEdges();
  highlightAdjacentNodes();
});
]]></script>
</svg>
