<?xml version="1.0" encoding="UTF-8" standalone="no"?>
<!DOCTYPE svg PUBLIC "-//W3C//DTD SVG 1.1//EN"
 "http://www.w3.org/Graphics/SVG/1.1/DTD/svg11.dtd">
<!-- Generated by graphviz version 2.43.0 (0)
 -->
<!-- Title: vector_shift Pages: 1 -->
<svg width="445pt" height="46pt"
 viewBox="0.00 0.00 445.00 46.00" xmlns="http://www.w3.org/2000/svg" xmlns:xlink="http://www.w3.org/1999/xlink">

<svg id="main" version="1.1" xmlns="http://www.w3.org/2000/svg" xmlns:xlink="http://www.w3.org/1999/xlink" xml:space="preserve" onload="init(evt)">
<style type="text/css"><![CDATA[
.node, .edge {opacity: 0.7;}
.node.selected, .edge.selected {opacity: 1;}
.edge:hover path { stroke: red; }
.edge:hover polygon { stroke: red; fill: red; }
]]></style>
<script type="application/ecmascript" xlink:href="svg.min.js"/>
<svg id="graph" class="graph">
<g id="graph0" class="graph" transform="scale(1 1) rotate(0) translate(4 42)">
<title>vector_shift</title>
<!-- Node1 -->
<g id="Node000001" class="node">
<title>Node1</title>
<g id="a_Node000001"><a xlink:title="Shift range of elements.">
<polygon fill="#999999" stroke="#666666" points="74,-38 0,-38 0,-19 74,-19 74,-38"/>
<text text-anchor="middle" x="37" y="-26" font-family="Mononoki" font-size="10.00">vector_shift</text>
</a>
</g>
</g>
<!-- Node2 -->
<g id="Node000002" class="node">
<title>Node2</title>
<g id="a_Node000002"><a xlink:href="group__Elements.html#ga9437d9506a3b2799f595c88b82f160b3" target="_top" xlink:title="Returns pointer for the element at index.">
<polygon fill="white" stroke="#666666" points="294,-38 226,-38 226,-19 294,-19 294,-38"/>
<text text-anchor="middle" x="260" y="-26" font-family="Mononoki" font-size="10.00">vector_get</text>
</a>
</g>
</g>
<!-- Node1&#45;&gt;Node2 -->
<g id="edge1_Node000001_Node000002" class="edge">
<title>Node1&#45;&gt;Node2</title>
<g id="a_edge1_Node000001_Node000002"><a xlink:title=" ">
<path fill="none" stroke="#63b8ff" d="M74.49,-28.5C113.26,-28.5 174.52,-28.5 215.7,-28.5"/>
<polygon fill="#63b8ff" stroke="#63b8ff" points="215.71,-32 225.71,-28.5 215.71,-25 215.71,-32"/>
</a>
</g>
</g>
<!-- Node4 -->
<g id="Node000004" class="node">
<title>Node4</title>
<g id="a_Node000004"><a xlink:href="group__Elements.html#gaa94c547c9488b4f9dce5eb01067c2ae1" target="_top" xlink:title="Moves range of the vector elements to another location.">
<polygon fill="white" stroke="#666666" points="190,-19 110,-19 110,0 190,0 190,-19"/>
<text text-anchor="middle" x="150" y="-7" font-family="Mononoki" font-size="10.00">vector_move</text>
</a>
</g>
</g>
<!-- Node1&#45;&gt;Node4 -->
<g id="edge3_Node000001_Node000004" class="edge">
<title>Node1&#45;&gt;Node4</title>
<g id="a_edge3_Node000001_Node000004"><a xlink:title=" ">
<path fill="none" stroke="#63b8ff" d="M74.04,-22.33C82.23,-20.93 91.07,-19.42 99.7,-17.94"/>
<polygon fill="#63b8ff" stroke="#63b8ff" points="100.43,-21.37 109.69,-16.23 99.25,-14.47 100.43,-21.37"/>
</a>
</g>
</g>
<!-- Node3 -->
<g id="Node000003" class="node">
<title>Node3</title>
<g id="a_Node000003"><a xlink:href="group__Extension.html#ga435ecb8dca435624d8d277feb6b2cc80" target="_top" xlink:title="Compute offset from vector_t::memory to first element.">
<polygon fill="white" stroke="#666666" points="437,-38 330,-38 330,-19 437,-19 437,-38"/>
<text text-anchor="middle" x="383.5" y="-26" font-family="Mononoki" font-size="10.00">vector_data_offset</text>
</a>
</g>
</g>
<!-- Node2&#45;&gt;Node3 -->
<g id="edge2_Node000002_Node000003" class="edge">
<title>Node2&#45;&gt;Node3</title>
<g id="a_edge2_Node000002_Node000003"><a xlink:title=" ">
<path fill="none" stroke="#63b8ff" d="M294.2,-28.5C302.08,-28.5 310.74,-28.5 319.47,-28.5"/>
<polygon fill="#63b8ff" stroke="#63b8ff" points="319.69,-32 329.69,-28.5 319.69,-25 319.69,-32"/>
</a>
</g>
</g>
<!-- Node4&#45;&gt;Node2 -->
<g id="edge4_Node000004_Node000002" class="edge">
<title>Node4&#45;&gt;Node2</title>
<g id="a_edge4_Node000004_Node000002"><a xlink:title=" ">
<path fill="none" stroke="#63b8ff" d="M190.3,-16.41C198.61,-17.88 207.44,-19.43 215.89,-20.92"/>
<polygon fill="#63b8ff" stroke="#63b8ff" points="215.5,-24.4 225.95,-22.69 216.71,-17.51 215.5,-24.4"/>
</a>
</g>
</g>
</g>
</svg>
</svg>

<style type='text/css'>
<![CDATA[
[data-mouse-over-selected='false'] { opacity: 0.7; }
[data-mouse-over-selected='true']  { opacity: 1.0; }
]]>
</style>
<script type="application/ecmascript"><![CDATA[
document.addEventListener('DOMContentLoaded', (event) => {
  highlightEdges();
  highlightAdjacentNodes();
});
]]></script>
</svg>
