<?xml version="1.0" encoding="UTF-8" standalone="no"?>
<!DOCTYPE svg PUBLIC "-//W3C//DTD SVG 1.1//EN"
 "http://www.w3.org/Graphics/SVG/1.1/DTD/svg11.dtd">
<!-- Generated by graphviz version 2.43.0 (0)
 -->
<!-- Title: vector_copy Pages: 1 -->
<svg width="331pt" height="27pt"
 viewBox="0.00 0.00 331.00 27.00" xmlns="http://www.w3.org/2000/svg" xmlns:xlink="http://www.w3.org/1999/xlink">
<g id="graph0" class="graph" transform="scale(1 1) rotate(0) translate(4 23)">
<title>vector_copy</title>
<!-- Node1 -->
<g id="Node000001" class="node">
<title>Node1</title>
<g id="a_Node000001"><a xlink:title="Copy element range to other location.">
<polygon fill="#999999" stroke="#666666" points="76,-19 0,-19 0,0 76,0 76,-19"/>
<text text-anchor="middle" x="38" y="-7" font-family="Mononoki" font-size="10.00">vector_copy</text>
</a>
</g>
</g>
<!-- Node2 -->
<g id="Node000002" class="node">
<title>Node2</title>
<g id="a_Node000002"><a xlink:href="group__Elements.html#ga9437d9506a3b2799f595c88b82f160b3" target="_top" xlink:title="Returns pointer for the element at index.">
<polygon fill="white" stroke="#666666" points="180,-19 112,-19 112,0 180,0 180,-19"/>
<text text-anchor="middle" x="146" y="-7" font-family="Mononoki" font-size="10.00">vector_get</text>
</a>
</g>
</g>
<!-- Node1&#45;&gt;Node2 -->
<g id="edge1_Node000001_Node000002" class="edge">
<title>Node1&#45;&gt;Node2</title>
<g id="a_edge1_Node000001_Node000002"><a xlink:title=" ">
<path fill="none" stroke="#63b8ff" d="M76.07,-9.5C84.31,-9.5 93.11,-9.5 101.57,-9.5"/>
<polygon fill="#63b8ff" stroke="#63b8ff" points="101.67,-13 111.67,-9.5 101.67,-6 101.67,-13"/>
</a>
</g>
</g>
<!-- Node3 -->
<g id="Node000003" class="node">
<title>Node3</title>
<g id="a_Node000003"><a xlink:href="group__Extension.html#ga435ecb8dca435624d8d277feb6b2cc80" target="_top" xlink:title="Compute offset from vector_t::memory to first element.">
<polygon fill="white" stroke="#666666" points="323,-19 216,-19 216,0 323,0 323,-19"/>
<text text-anchor="middle" x="269.5" y="-7" font-family="Mononoki" font-size="10.00">vector_data_offset</text>
</a>
</g>
</g>
<!-- Node2&#45;&gt;Node3 -->
<g id="edge2_Node000002_Node000003" class="edge">
<title>Node2&#45;&gt;Node3</title>
<g id="a_edge2_Node000002_Node000003"><a xlink:title=" ">
<path fill="none" stroke="#63b8ff" d="M180.2,-9.5C188.08,-9.5 196.74,-9.5 205.47,-9.5"/>
<polygon fill="#63b8ff" stroke="#63b8ff" points="205.69,-13 215.69,-9.5 205.69,-6 205.69,-13"/>
</a>
</g>
</g>
</g>
</svg>
