<?xml version="1.0" encoding="UTF-8" standalone="no"?>
<!DOCTYPE svg PUBLIC "-//W3C//DTD SVG 1.1//EN"
 "http://www.w3.org/Graphics/SVG/1.1/DTD/svg11.dtd">
<!-- Generated by graphviz version 2.43.0 (0)
 -->
<!-- Title: vector_aggregate Pages: 1 -->
<svg width="357pt" height="27pt"
 viewBox="0.00 0.00 357.00 27.00" xmlns="http://www.w3.org/2000/svg" xmlns:xlink="http://www.w3.org/1999/xlink">
<g id="graph0" class="graph" transform="scale(1 1) rotate(0) translate(4 23)">
<title>vector_aggregate</title>
<!-- Node1 -->
<g id="Node000001" class="node">
<title>Node1</title>
<g id="a_Node000001"><a xlink:title="Perform immutable accamulating action on each element of the vector.">
<polygon fill="#999999" stroke="#666666" points="102,-19 0,-19 0,0 102,0 102,-19"/>
<text text-anchor="middle" x="51" y="-7" font-family="Mononoki" font-size="10.00">vector_aggregate</text>
</a>
</g>
</g>
<!-- Node2 -->
<g id="Node000002" class="node">
<title>Node2</title>
<g id="a_Node000002"><a xlink:href="group__Elements.html#ga9437d9506a3b2799f595c88b82f160b3" target="_top" xlink:title="Returns pointer for the element at index.">
<polygon fill="white" stroke="#666666" points="206,-19 138,-19 138,0 206,0 206,-19"/>
<text text-anchor="middle" x="172" y="-7" font-family="Mononoki" font-size="10.00">vector_get</text>
</a>
</g>
</g>
<!-- Node1&#45;&gt;Node2 -->
<g id="edge1_Node000001_Node000002" class="edge">
<title>Node1&#45;&gt;Node2</title>
<g id="a_edge1_Node000001_Node000002"><a xlink:title=" ">
<path fill="none" stroke="#63b8ff" d="M102.12,-9.5C110.61,-9.5 119.35,-9.5 127.65,-9.5"/>
<polygon fill="#63b8ff" stroke="#63b8ff" points="127.86,-13 137.86,-9.5 127.86,-6 127.86,-13"/>
</a>
</g>
</g>
<!-- Node3 -->
<g id="Node000003" class="node">
<title>Node3</title>
<g id="a_Node000003"><a xlink:href="group__Extension.html#ga435ecb8dca435624d8d277feb6b2cc80" target="_top" xlink:title="Compute offset from vector_t::memory to first element.">
<polygon fill="white" stroke="#666666" points="349,-19 242,-19 242,0 349,0 349,-19"/>
<text text-anchor="middle" x="295.5" y="-7" font-family="Mononoki" font-size="10.00">vector_data_offset</text>
</a>
</g>
</g>
<!-- Node2&#45;&gt;Node3 -->
<g id="edge2_Node000002_Node000003" class="edge">
<title>Node2&#45;&gt;Node3</title>
<g id="a_edge2_Node000002_Node000003"><a xlink:title=" ">
<path fill="none" stroke="#63b8ff" d="M206.2,-9.5C214.08,-9.5 222.74,-9.5 231.47,-9.5"/>
<polygon fill="#63b8ff" stroke="#63b8ff" points="231.69,-13 241.69,-9.5 231.69,-6 231.69,-13"/>
</a>
</g>
</g>
</g>
</svg>
