<?xml version="1.0" encoding="UTF-8" standalone="no"?>
<!DOCTYPE svg PUBLIC "-//W3C//DTD SVG 1.1//EN"
 "http://www.w3.org/Graphics/SVG/1.1/DTD/svg11.dtd">
<!-- Generated by graphviz version 2.43.0 (0)
 -->
<!-- Title: Graphical Class Hierarchy Pages: 1 -->
<svg width="222pt" height="64pt"
 viewBox="0.00 0.00 222.00 64.00" xmlns="http://www.w3.org/2000/svg" xmlns:xlink="http://www.w3.org/1999/xlink">
<g id="graph0" class="graph" transform="scale(1 1) rotate(0) translate(4 60)">
<title>Graphical Class Hierarchy</title>
<!-- Node0 -->
<g id="Node000000" class="node">
<title>Node0</title>
<g id="a_Node000000"><a xlink:href="structObject.html" target="_top" xlink:title="Object type.">
<polygon fill="white" stroke="#666666" points="48,-37 0,-37 0,-18 48,-18 48,-37"/>
<text text-anchor="middle" x="24" y="-25" font-family="Mononoki" font-size="10.00">Object</text>
</a>
</g>
</g>
<!-- Node1 -->
<g id="Node000001" class="node">
<title>Node1</title>
<g id="a_Node000001"><a xlink:href="structVehicle.html" target="_top" xlink:title="Vehicle type.">
<polygon fill="white" stroke="#666666" points="136,-37 84,-37 84,-18 136,-18 136,-37"/>
<text text-anchor="middle" x="110" y="-25" font-family="Mononoki" font-size="10.00">Vehicle</text>
</a>
</g>
</g>
<!-- Node0&#45;&gt;Node1 -->
<g id="edge5_Node000000_Node000001" class="edge">
<title>Node0&#45;&gt;Node1</title>
<g id="a_edge5_Node000000_Node000001"><a xlink:title=" ">
<path fill="none" stroke="#63b8ff" d="M58.44,-27.5C66.95,-27.5 75.95,-27.5 83.96,-27.5"/>
<polygon fill="#63b8ff" stroke="#63b8ff" points="58.4,-24 48.4,-27.5 58.4,-31 58.4,-24"/>
</a>
</g>
</g>
<!-- Node2 -->
<g id="Node000002" class="node">
<title>Node2</title>
<g id="a_Node000002"><a xlink:href="structCar.html" target="_top" xlink:title="Car type.">
<polygon fill="white" stroke="#666666" points="209.5,-56 176.5,-56 176.5,-37 209.5,-37 209.5,-56"/>
<text text-anchor="middle" x="193" y="-44" font-family="Mononoki" font-size="10.00">Car</text>
</a>
</g>
</g>
<!-- Node1&#45;&gt;Node2 -->
<g id="edge6_Node000001_Node000002" class="edge">
<title>Node1&#45;&gt;Node2</title>
<g id="a_edge6_Node000001_Node000002"><a xlink:title=" ">
<path fill="none" stroke="#63b8ff" d="M146.12,-35.74C156.74,-38.23 167.86,-40.84 176.5,-42.86"/>
<polygon fill="#63b8ff" stroke="#63b8ff" points="146.72,-32.28 136.18,-33.41 145.12,-39.1 146.72,-32.28"/>
</a>
</g>
</g>
<!-- Node3 -->
<g id="Node000003" class="node">
<title>Node3</title>
<g id="a_Node000003"><a xlink:href="structTruck.html" target="_top" xlink:title="Truck type.">
<polygon fill="white" stroke="#666666" points="214,-19 172,-19 172,0 214,0 214,-19"/>
<text text-anchor="middle" x="193" y="-7" font-family="Mononoki" font-size="10.00">Truck</text>
</a>
</g>
</g>
<!-- Node1&#45;&gt;Node3 -->
<g id="edge7_Node000001_Node000003" class="edge">
<title>Node1&#45;&gt;Node3</title>
<g id="a_edge7_Node000001_Node000003"><a xlink:title=" ">
<path fill="none" stroke="#63b8ff" d="M145.97,-19.73C154.86,-17.75 164.11,-15.7 171.97,-13.95"/>
<polygon fill="#63b8ff" stroke="#63b8ff" points="145.19,-16.32 136.18,-21.9 146.71,-23.15 145.19,-16.32"/>
</a>
</g>
</g>
</g>
</svg>
