<?xml version="1.0" encoding="UTF-8" standalone="no"?>
<!DOCTYPE svg PUBLIC "-//W3C//DTD SVG 1.1//EN"
 "http://www.w3.org/Graphics/SVG/1.1/DTD/svg11.dtd">
<!-- Generated by graphviz version 2.43.0 (0)
 -->
<!-- Title: Car Pages: 1 -->
<svg width="61pt" height="159pt"
 viewBox="0.00 0.00 61.00 159.00" xmlns="http://www.w3.org/2000/svg" xmlns:xlink="http://www.w3.org/1999/xlink">

<svg id="main" version="1.1" xmlns="http://www.w3.org/2000/svg" xmlns:xlink="http://www.w3.org/1999/xlink" xml:space="preserve" onload="init(evt)">
<style type="text/css"><![CDATA[
.node, .edge {opacity: 0.7;}
.node.selected, .edge.selected {opacity: 1;}
.edge:hover path { stroke: red; }
.edge:hover polygon { stroke: red; fill: red; }
]]></style>
<script type="application/ecmascript" xlink:href="svg.min.js"/>
<svg id="graph" class="graph">
<g id="graph0" class="graph" transform="scale(1 1) rotate(0) translate(4 155)">
<title>Car</title>
<!-- Node1 -->
<g id="Node000001" class="node">
<title>Node1</title>
<g id="a_Node000001"><a xlink:title="Car type.">
<polygon fill="#999999" stroke="#666666" points="42.5,-19 9.5,-19 9.5,0 42.5,0 42.5,-19"/>
<text text-anchor="middle" x="26" y="-7" font-family="Mononoki" font-size="10.00">Car</text>
</a>
</g>
</g>
<!-- Node2 -->
<g id="Node000002" class="node">
<title>Node2</title>
<g id="a_Node000002"><a xlink:href="structVehicle.html" target="_top" xlink:title="Vehicle type.">
<polygon fill="white" stroke="#666666" points="52,-85 0,-85 0,-66 52,-66 52,-85"/>
<text text-anchor="middle" x="26" y="-73" font-family="Mononoki" font-size="10.00">Vehicle</text>
</a>
</g>
</g>
<!-- Node2&#45;&gt;Node1 -->
<g id="edge1_Node000001_Node000002" class="edge">
<title>Node2&#45;&gt;Node1</title>
<g id="a_edge1_Node000001_Node000002"><a xlink:title=" ">
<path fill="none" stroke="#63b8ff" d="M24.4,-55.69C24.24,-53.11 24.09,-50.49 24,-48 23.63,-38.1 24.4,-26.73 25.09,-19.14"/>
<polygon fill="#63b8ff" stroke="#63b8ff" points="20.92,-55.97 25.17,-65.68 27.9,-55.44 20.92,-55.97"/>
</a>
</g>
</g>
<!-- Node2&#45;&gt;Node1 -->
<g id="edge4_Node000001_Node000002" class="edge">
<title>Node2&#45;&gt;Node1</title>
<g id="a_edge4_Node000001_Node000002"><a xlink:title=" ">
<path fill="none" stroke="#9a32cd" stroke-dasharray="5,2" d="M26,-55.58C26,-43.63 26,-28.72 26,-19.41"/>
<polygon fill="#9a32cd" stroke="#9a32cd" points="22.5,-55.87 26,-65.87 29.5,-55.87 22.5,-55.87"/>
</a>
</g>
<text text-anchor="middle" x="39.5" y="-40" font-family="Mononoki" font-size="10.00" fill="grey"> base</text>
</g>
<!-- Node3 -->
<g id="Node000003" class="node">
<title>Node3</title>
<g id="a_Node000003"><a xlink:href="structObject.html" target="_top" xlink:title="Object type.">
<polygon fill="white" stroke="#666666" points="50,-151 2,-151 2,-132 50,-132 50,-151"/>
<text text-anchor="middle" x="26" y="-139" font-family="Mononoki" font-size="10.00">Object</text>
</a>
</g>
</g>
<!-- Node3&#45;&gt;Node2 -->
<g id="edge2_Node000002_Node000003" class="edge">
<title>Node3&#45;&gt;Node2</title>
<g id="a_edge2_Node000002_Node000003"><a xlink:title=" ">
<path fill="none" stroke="#63b8ff" d="M24.4,-121.69C24.24,-119.11 24.09,-116.49 24,-114 23.63,-104.1 24.4,-92.73 25.09,-85.14"/>
<polygon fill="#63b8ff" stroke="#63b8ff" points="20.92,-121.97 25.17,-131.68 27.9,-121.44 20.92,-121.97"/>
</a>
</g>
</g>
<!-- Node3&#45;&gt;Node2 -->
<g id="edge3_Node000002_Node000003" class="edge">
<title>Node3&#45;&gt;Node2</title>
<g id="a_edge3_Node000002_Node000003"><a xlink:title=" ">
<path fill="none" stroke="#9a32cd" stroke-dasharray="5,2" d="M26,-121.58C26,-109.63 26,-94.72 26,-85.41"/>
<polygon fill="#9a32cd" stroke="#9a32cd" points="22.5,-121.87 26,-131.87 29.5,-121.87 22.5,-121.87"/>
</a>
</g>
<text text-anchor="middle" x="39.5" y="-106" font-family="Mononoki" font-size="10.00" fill="grey"> base</text>
</g>
</g>
</svg>
</svg>

<style type='text/css'>
<![CDATA[
[data-mouse-over-selected='false'] { opacity: 0.7; }
[data-mouse-over-selected='true']  { opacity: 1.0; }
]]>
</style>
<script type="application/ecmascript"><![CDATA[
document.addEventListener('DOMContentLoaded', (event) => {
  highlightEdges();
  highlightAdjacentNodes();
});
]]></script>
</svg>
