<?xml version="1.0" encoding="UTF-8" standalone="no"?>
<!DOCTYPE svg PUBLIC "-//W3C//DTD SVG 1.1//EN"
 "http://www.w3.org/Graphics/SVG/1.1/DTD/svg11.dtd">
<!-- Generated by graphviz version 2.43.0 (0)
 -->
<!-- Title: src/vector.h Pages: 1 -->
<svg width="510pt" height="82pt"
 viewBox="0.00 0.00 510.00 82.00" xmlns="http://www.w3.org/2000/svg" xmlns:xlink="http://www.w3.org/1999/xlink">
<g id="graph0" class="graph" transform="scale(1 1) rotate(0) translate(4 78)">
<title>src/vector.h</title>
<!-- Node1 -->
<g id="Node000001" class="node">
<title>Node1</title>
<g id="a_Node000001"><a xlink:title="Public interface of the vector.">
<polygon fill="#999999" stroke="#666666" points="316.5,-74 243.5,-74 243.5,-55 316.5,-55 316.5,-74"/>
<text text-anchor="middle" x="280" y="-62" font-family="Mononoki" font-size="10.00">src/vector.h</text>
</a>
</g>
</g>
<!-- Node2 -->
<g id="Node000002" class="node">
<title>Node2</title>
<g id="a_Node000002"><a xlink:href="aligned__alloc_8c_source.html" target="_top" xlink:title=" ">
<polygon fill="white" stroke="#666666" points="140,-19 0,-19 0,0 140,0 140,-19"/>
<text text-anchor="middle" x="70" y="-7" font-family="Mononoki" font-size="10.00">examples/aligned_alloc.c</text>
</a>
</g>
</g>
<!-- Node1&#45;&gt;Node2 -->
<g id="edge1_Node000001_Node000002" class="edge">
<title>Node1&#45;&gt;Node2</title>
<g id="a_edge1_Node000001_Node000002"><a xlink:title=" ">
<path fill="none" stroke="#63b8ff" d="M236.42,-52.5C197.1,-42.58 140.05,-28.18 104,-19.08"/>
<polygon fill="#63b8ff" stroke="#63b8ff" points="235.71,-55.93 246.26,-54.98 237.42,-49.14 235.71,-55.93"/>
</a>
</g>
</g>
<!-- Node3 -->
<g id="Node000003" class="node">
<title>Node3</title>
<g id="a_Node000003"><a xlink:href="create_8c_source.html" target="_top" xlink:title=" ">
<polygon fill="white" stroke="#666666" points="265.5,-19 158.5,-19 158.5,0 265.5,0 265.5,-19"/>
<text text-anchor="middle" x="212" y="-7" font-family="Mononoki" font-size="10.00">examples/create.c</text>
</a>
</g>
</g>
<!-- Node1&#45;&gt;Node3 -->
<g id="edge2_Node000001_Node000003" class="edge">
<title>Node1&#45;&gt;Node3</title>
<g id="a_edge2_Node000001_Node000003"><a xlink:title=" ">
<path fill="none" stroke="#63b8ff" d="M260.88,-48.6C248.7,-39.11 233.34,-27.13 223.12,-19.17"/>
<polygon fill="#63b8ff" stroke="#63b8ff" points="259.04,-51.6 269.07,-54.98 263.34,-46.08 259.04,-51.6"/>
</a>
</g>
</g>
<!-- Node4 -->
<g id="Node000004" class="node">
<title>Node4</title>
<g id="a_Node000004"><a xlink:href="polymorph_8c_source.html" target="_top" xlink:title=" ">
<polygon fill="white" stroke="#666666" points="412,-19 284,-19 284,0 412,0 412,-19"/>
<text text-anchor="middle" x="348" y="-7" font-family="Mononoki" font-size="10.00">examples/polymorph.c</text>
</a>
</g>
</g>
<!-- Node1&#45;&gt;Node4 -->
<g id="edge3_Node000001_Node000004" class="edge">
<title>Node1&#45;&gt;Node4</title>
<g id="a_edge3_Node000001_Node000004"><a xlink:title=" ">
<path fill="none" stroke="#63b8ff" d="M299.12,-48.6C311.3,-39.11 326.66,-27.13 336.88,-19.17"/>
<polygon fill="#63b8ff" stroke="#63b8ff" points="296.66,-46.08 290.93,-54.98 300.96,-51.6 296.66,-46.08"/>
</a>
</g>
</g>
<!-- Node5 -->
<g id="Node000005" class="node">
<title>Node5</title>
<g id="a_Node000005"><a xlink:href="vector_8c.html" target="_top" xlink:title="Implementation of the vector.">
<polygon fill="white" stroke="#666666" points="502,-19 430,-19 430,0 502,0 502,-19"/>
<text text-anchor="middle" x="466" y="-7" font-family="Mononoki" font-size="10.00">src/vector.c</text>
</a>
</g>
</g>
<!-- Node1&#45;&gt;Node5 -->
<g id="edge4_Node000001_Node000005" class="edge">
<title>Node1&#45;&gt;Node5</title>
<g id="a_edge4_Node000001_Node000005"><a xlink:title=" ">
<path fill="none" stroke="#63b8ff" d="M319.71,-52.18C354.5,-42.27 404.29,-28.08 435.88,-19.08"/>
<polygon fill="#63b8ff" stroke="#63b8ff" points="318.54,-48.88 309.88,-54.98 320.46,-55.61 318.54,-48.88"/>
</a>
</g>
</g>
</g>
</svg>
