<?xml version="1.0" encoding="UTF-8" standalone="no"?>
<!DOCTYPE svg PUBLIC "-//W3C//DTD SVG 1.1//EN"
 "http://www.w3.org/Graphics/SVG/1.1/DTD/svg11.dtd">
<!-- Generated by graphviz version 2.43.0 (0)
 -->
<!-- Title: src/vector.c Pages: 1 -->
<svg width="234pt" height="137pt"
 viewBox="0.00 0.00 234.00 137.00" xmlns="http://www.w3.org/2000/svg" xmlns:xlink="http://www.w3.org/1999/xlink">
<g id="graph0" class="graph" transform="scale(1 1) rotate(0) translate(4 133)">
<title>src/vector.c</title>
<!-- Node1 -->
<g id="Node000001" class="node">
<title>Node1</title>
<g id="a_Node000001"><a xlink:title="Implementation of the vector.">
<polygon fill="#999999" stroke="#666666" points="144,-129 72,-129 72,-110 144,-110 144,-129"/>
<text text-anchor="middle" x="108" y="-117" font-family="Mononoki" font-size="10.00">src/vector.c</text>
</a>
</g>
</g>
<!-- Node2 -->
<g id="Node000002" class="node">
<title>Node2</title>
<g id="a_Node000002"><a xlink:href="vector_8h.html" target="_top" xlink:title="Public interface of the vector.">
<polygon fill="white" stroke="#666666" points="136,-74 80,-74 80,-55 136,-55 136,-74"/>
<text text-anchor="middle" x="108" y="-62" font-family="Mononoki" font-size="10.00">vector.h</text>
</a>
</g>
</g>
<!-- Node1&#45;&gt;Node2 -->
<g id="edge1_Node000001_Node000002" class="edge">
<title>Node1&#45;&gt;Node2</title>
<g id="a_edge1_Node000001_Node000002"><a xlink:title=" ">
<path fill="none" stroke="#63b8ff" d="M108,-109.75C108,-102.8 108,-92.85 108,-84.13"/>
<polygon fill="#63b8ff" stroke="#63b8ff" points="111.5,-84.09 108,-74.09 104.5,-84.09 111.5,-84.09"/>
</a>
</g>
</g>
<!-- Node3 -->
<g id="Node000003" class="node">
<title>Node3</title>
<g id="a_Node000003"><a xlink:title=" ">
<polygon fill="#e0e0e0" stroke="#999999" points="62,-19 0,-19 0,0 62,0 62,-19"/>
<text text-anchor="middle" x="31" y="-7" font-family="Mononoki" font-size="10.00">stdbool.h</text>
</a>
</g>
</g>
<!-- Node2&#45;&gt;Node3 -->
<g id="edge2_Node000002_Node000003" class="edge">
<title>Node2&#45;&gt;Node3</title>
<g id="a_edge2_Node000002_Node000003"><a xlink:title=" ">
<path fill="none" stroke="#63b8ff" d="M95.63,-54.98C83.91,-46.92 66.08,-34.65 52.11,-25.03"/>
<polygon fill="#63b8ff" stroke="#63b8ff" points="53.82,-21.96 43.6,-19.17 49.85,-27.72 53.82,-21.96"/>
</a>
</g>
</g>
<!-- Node4 -->
<g id="Node000004" class="node">
<title>Node4</title>
<g id="a_Node000004"><a xlink:title=" ">
<polygon fill="#e0e0e0" stroke="#999999" points="136,-19 80,-19 80,0 136,0 136,-19"/>
<text text-anchor="middle" x="108" y="-7" font-family="Mononoki" font-size="10.00">stddef.h</text>
</a>
</g>
</g>
<!-- Node2&#45;&gt;Node4 -->
<g id="edge3_Node000002_Node000004" class="edge">
<title>Node2&#45;&gt;Node4</title>
<g id="a_edge3_Node000002_Node000004"><a xlink:title=" ">
<path fill="none" stroke="#63b8ff" d="M108,-54.75C108,-47.8 108,-37.85 108,-29.13"/>
<polygon fill="#63b8ff" stroke="#63b8ff" points="111.5,-29.09 108,-19.09 104.5,-29.09 111.5,-29.09"/>
</a>
</g>
</g>
<!-- Node5 -->
<g id="Node000005" class="node">
<title>Node5</title>
<g id="a_Node000005"><a xlink:title=" ">
<polygon fill="#e0e0e0" stroke="#999999" points="226,-19 154,-19 154,0 226,0 226,-19"/>
<text text-anchor="middle" x="190" y="-7" font-family="Mononoki" font-size="10.00">sys/types.h</text>
</a>
</g>
</g>
<!-- Node2&#45;&gt;Node5 -->
<g id="edge4_Node000002_Node000005" class="edge">
<title>Node2&#45;&gt;Node5</title>
<g id="a_edge4_Node000002_Node000005"><a xlink:title=" ">
<path fill="none" stroke="#63b8ff" d="M121.17,-54.98C133.77,-46.84 153,-34.41 167.94,-24.76"/>
<polygon fill="#63b8ff" stroke="#63b8ff" points="170.09,-27.54 176.59,-19.17 166.29,-21.66 170.09,-27.54"/>
</a>
</g>
</g>
</g>
</svg>
