<?xml version="1.0" encoding="UTF-8" standalone="no"?>
<!DOCTYPE svg PUBLIC "-//W3C//DTD SVG 1.1//EN"
 "http://www.w3.org/Graphics/SVG/1.1/DTD/svg11.dtd">
<!-- Generated by graphviz version 2.43.0 (0)
 -->
<!-- Title: src/vector.h Pages: 1 -->
<svg width="620pt" height="82pt"
 viewBox="0.00 0.00 620.00 82.00" xmlns="http://www.w3.org/2000/svg" xmlns:xlink="http://www.w3.org/1999/xlink">
<g id="graph0" class="graph" transform="scale(1 1) rotate(0) translate(4 78)">
<title>src/vector.h</title>
<!-- Node1 -->
<g id="Node000001" class="node">
<title>Node1</title>
<g id="a_Node000001"><a xlink:title="Public interface of the vector.">
<polygon fill="#999999" stroke="#666666" points="366.5,-74 293.5,-74 293.5,-55 366.5,-55 366.5,-74"/>
<text text-anchor="middle" x="330" y="-62" font-family="Mononoki" font-size="10.00">src/vector.h</text>
</a>
</g>
</g>
<!-- Node2 -->
<g id="Node000002" class="node">
<title>Node2</title>
<g id="a_Node000002"><a xlink:href="aligned__alloc_8c_source.html" target="_top" xlink:title=" ">
<polygon fill="white" stroke="#666666" points="140,-19 0,-19 0,0 140,0 140,-19"/>
<text text-anchor="middle" x="70" y="-7" font-family="Mononoki" font-size="10.00">examples/aligned_alloc.c</text>
</a>
</g>
</g>
<!-- Node1&#45;&gt;Node2 -->
<g id="edge1_Node000001_Node000002" class="edge">
<title>Node1&#45;&gt;Node2</title>
<g id="a_edge1_Node000001_Node000002"><a xlink:title=" ">
<path fill="none" stroke="#63b8ff" d="M283.34,-53.99C234.66,-44.07 159.03,-28.65 112.11,-19.08"/>
<polygon fill="#63b8ff" stroke="#63b8ff" points="282.8,-57.45 293.3,-56.02 284.2,-50.59 282.8,-57.45"/>
</a>
</g>
</g>
<!-- Node3 -->
<g id="Node000003" class="node">
<title>Node3</title>
<g id="a_Node000003"><a xlink:href="create_8c_source.html" target="_top" xlink:title=" ">
<polygon fill="white" stroke="#666666" points="265.5,-19 158.5,-19 158.5,0 265.5,0 265.5,-19"/>
<text text-anchor="middle" x="212" y="-7" font-family="Mononoki" font-size="10.00">examples/create.c</text>
</a>
</g>
</g>
<!-- Node1&#45;&gt;Node3 -->
<g id="edge2_Node000001_Node000003" class="edge">
<title>Node1&#45;&gt;Node3</title>
<g id="a_edge2_Node000001_Node000003"><a xlink:title=" ">
<path fill="none" stroke="#63b8ff" d="M301.65,-50.77C279.88,-40.99 250.41,-27.75 231.3,-19.17"/>
<polygon fill="#63b8ff" stroke="#63b8ff" points="300.49,-54.08 311.04,-54.98 303.35,-47.69 300.49,-54.08"/>
</a>
</g>
</g>
<!-- Node4 -->
<g id="Node000004" class="node">
<title>Node4</title>
<g id="a_Node000004"><a xlink:href="init_8c_source.html" target="_top" xlink:title=" ">
<polygon fill="white" stroke="#666666" points="376,-19 284,-19 284,0 376,0 376,-19"/>
<text text-anchor="middle" x="330" y="-7" font-family="Mononoki" font-size="10.00">examples/init.c</text>
</a>
</g>
</g>
<!-- Node1&#45;&gt;Node4 -->
<g id="edge3_Node000001_Node000004" class="edge">
<title>Node1&#45;&gt;Node4</title>
<g id="a_edge3_Node000001_Node000004"><a xlink:title=" ">
<path fill="none" stroke="#63b8ff" d="M330,-44.66C330,-35.93 330,-25.99 330,-19.09"/>
<polygon fill="#63b8ff" stroke="#63b8ff" points="326.5,-44.75 330,-54.75 333.5,-44.75 326.5,-44.75"/>
</a>
</g>
</g>
<!-- Node5 -->
<g id="Node000005" class="node">
<title>Node5</title>
<g id="a_Node000005"><a xlink:href="polymorph_8c_source.html" target="_top" xlink:title=" ">
<polygon fill="white" stroke="#666666" points="522,-19 394,-19 394,0 522,0 522,-19"/>
<text text-anchor="middle" x="458" y="-7" font-family="Mononoki" font-size="10.00">examples/polymorph.c</text>
</a>
</g>
</g>
<!-- Node1&#45;&gt;Node5 -->
<g id="edge4_Node000001_Node000005" class="edge">
<title>Node1&#45;&gt;Node5</title>
<g id="a_edge4_Node000001_Node000005"><a xlink:title=" ">
<path fill="none" stroke="#63b8ff" d="M360.12,-51.03C383.79,-41.23 416.15,-27.83 437.06,-19.17"/>
<polygon fill="#63b8ff" stroke="#63b8ff" points="358.47,-47.93 350.57,-54.98 361.14,-54.39 358.47,-47.93"/>
</a>
</g>
</g>
<!-- Node6 -->
<g id="Node000006" class="node">
<title>Node6</title>
<g id="a_Node000006"><a xlink:href="vector_8c.html" target="_top" xlink:title="Implementation of the vector.">
<polygon fill="white" stroke="#666666" points="612,-19 540,-19 540,0 612,0 612,-19"/>
<text text-anchor="middle" x="576" y="-7" font-family="Mononoki" font-size="10.00">src/vector.c</text>
</a>
</g>
</g>
<!-- Node1&#45;&gt;Node6 -->
<g id="edge5_Node000001_Node000006" class="edge">
<title>Node1&#45;&gt;Node6</title>
<g id="a_edge5_Node000001_Node000006"><a xlink:title=" ">
<path fill="none" stroke="#63b8ff" d="M376.56,-53.47C423.92,-43.26 496.33,-27.66 539.64,-18.33"/>
<polygon fill="#63b8ff" stroke="#63b8ff" points="375.6,-50.09 366.56,-55.62 377.08,-56.94 375.6,-50.09"/>
</a>
</g>
</g>
</g>
</svg>
