<?xml version="1.0" encoding="UTF-8" standalone="no"?>
<!DOCTYPE svg PUBLIC "-//W3C//DTD SVG 1.1//EN"
 "http://www.w3.org/Graphics/SVG/1.1/DTD/svg11.dtd">
<!-- Generated by graphviz version 2.43.0 (0)
 -->
<!-- Title: binary_find Pages: 1 -->
<svg width="326pt" height="45pt"
 viewBox="0.00 0.00 326.00 45.00" xmlns="http://www.w3.org/2000/svg" xmlns:xlink="http://www.w3.org/1999/xlink">
<g id="graph0" class="graph" transform="scale(1 1) rotate(0) translate(4 41)">
<title>binary_find</title>
<!-- Node1 -->
<g id="Node000001" class="node">
<title>Node1</title>
<g id="a_Node000001"><a xlink:title="Performs binary search on a vectors range.">
<polygon fill="#999999" stroke="#666666" points="71,-19 0,-19 0,0 71,0 71,-19"/>
<text text-anchor="middle" x="35.5" y="-7" font-family="Mononoki" font-size="10.00">binary_find</text>
</a>
</g>
</g>
<!-- Node1&#45;&gt;Node1 -->
<g id="edge1_Node000001_Node000001" class="edge">
<title>Node1&#45;&gt;Node1</title>
<g id="a_edge1_Node000001_Node000001"><a xlink:title=" ">
<path fill="none" stroke="#63b8ff" d="M19.47,-19.08C11.67,-27.73 17.02,-37 35.5,-37 47.05,-37 53.47,-33.38 54.76,-28.55"/>
<polygon fill="#63b8ff" stroke="#63b8ff" points="58.07,-27.42 51.53,-19.08 51.44,-29.68 58.07,-27.42"/>
</a>
</g>
</g>
<!-- Node2 -->
<g id="Node000002" class="node">
<title>Node2</title>
<g id="a_Node000002"><a xlink:href="group__Vector__API.html#ga9437d9506a3b2799f595c88b82f160b3" target="_top" xlink:title="Returns pointer for the element at index.">
<polygon fill="white" stroke="#666666" points="175,-19 107,-19 107,0 175,0 175,-19"/>
<text text-anchor="middle" x="141" y="-7" font-family="Mononoki" font-size="10.00">vector_get</text>
</a>
</g>
</g>
<!-- Node1&#45;&gt;Node2 -->
<g id="edge2_Node000001_Node000002" class="edge">
<title>Node1&#45;&gt;Node2</title>
<g id="a_edge2_Node000001_Node000002"><a xlink:title=" ">
<path fill="none" stroke="#63b8ff" d="M71.25,-9.5C79.44,-9.5 88.26,-9.5 96.76,-9.5"/>
<polygon fill="#63b8ff" stroke="#63b8ff" points="96.92,-13 106.92,-9.5 96.92,-6 96.92,-13"/>
</a>
</g>
</g>
<!-- Node3 -->
<g id="Node000003" class="node">
<title>Node3</title>
<g id="a_Node000003"><a xlink:href="group__Vector__API.html#ga435ecb8dca435624d8d277feb6b2cc80" target="_top" xlink:title="Access vector_t::data_offset property for extensions.">
<polygon fill="white" stroke="#666666" points="318,-19 211,-19 211,0 318,0 318,-19"/>
<text text-anchor="middle" x="264.5" y="-7" font-family="Mononoki" font-size="10.00">vector_data_offset</text>
</a>
</g>
</g>
<!-- Node2&#45;&gt;Node3 -->
<g id="edge3_Node000002_Node000003" class="edge">
<title>Node2&#45;&gt;Node3</title>
<g id="a_edge3_Node000002_Node000003"><a xlink:title=" ">
<path fill="none" stroke="#63b8ff" d="M175.2,-9.5C183.08,-9.5 191.74,-9.5 200.47,-9.5"/>
<polygon fill="#63b8ff" stroke="#63b8ff" points="200.69,-13 210.69,-9.5 200.69,-6 200.69,-13"/>
</a>
</g>
</g>
</g>
</svg>
