<?xml version="1.0" encoding="UTF-8" standalone="no"?>
<!DOCTYPE svg PUBLIC "-//W3C//DTD SVG 1.1//EN"
 "http://www.w3.org/Graphics/SVG/1.1/DTD/svg11.dtd">
<!-- Generated by graphviz version 2.43.0 (0)
 -->
<!-- Title: vector_transform Pages: 1 -->
<svg width="340pt" height="27pt"
 viewBox="0.00 0.00 340.00 27.00" xmlns="http://www.w3.org/2000/svg" xmlns:xlink="http://www.w3.org/1999/xlink">
<g id="graph0" class="graph" transform="scale(1 1) rotate(0) translate(4 23)">
<title>vector_transform</title>
<!-- Node1 -->
<g id="Node000001" class="node">
<title>Node1</title>
<g id="a_Node000001"><a xlink:title="Perform mutable transformation on each element of the vector.">
<polygon fill="#999999" stroke="#666666" points="101,-19 0,-19 0,0 101,0 101,-19"/>
<text text-anchor="middle" x="50.5" y="-7" font-family="Mononoki" font-size="10.00">vector_transform</text>
</a>
</g>
</g>
<!-- Node2 -->
<g id="Node000002" class="node">
<title>Node2</title>
<g id="a_Node000002"><a xlink:href="group__Vector__API.html#ga988880baa4fe32fb6d4299daf1a29a1f" target="_top" xlink:title="Perform immutable action on each element of the vector.">
<polygon fill="white" stroke="#666666" points="227,-19 137,-19 137,0 227,0 227,-19"/>
<text text-anchor="middle" x="182" y="-7" font-family="Mononoki" font-size="10.00">vector_foreach</text>
</a>
</g>
</g>
<!-- Node1&#45;&gt;Node2 -->
<g id="edge1_Node000001_Node000002" class="edge">
<title>Node1&#45;&gt;Node2</title>
<g id="a_edge1_Node000001_Node000002"><a xlink:title=" ">
<path fill="none" stroke="#63b8ff" d="M101.2,-9.5C109.51,-9.5 118.18,-9.5 126.61,-9.5"/>
<polygon fill="#63b8ff" stroke="#63b8ff" points="126.73,-13 136.73,-9.5 126.73,-6 126.73,-13"/>
</a>
</g>
</g>
<!-- Node3 -->
<g id="Node000003" class="node">
<title>Node3</title>
<g id="a_Node000003"><a xlink:href="group__Vector__API.html#ga9437d9506a3b2799f595c88b82f160b3" target="_top" xlink:title="Returns pointer for the element at index.">
<polygon fill="white" stroke="#666666" points="332,-19 263,-19 263,0 332,0 332,-19"/>
<text text-anchor="middle" x="297.5" y="-7" font-family="Mononoki" font-size="10.00">vector_get</text>
</a>
</g>
</g>
<!-- Node2&#45;&gt;Node3 -->
<g id="edge2_Node000002_Node000003" class="edge">
<title>Node2&#45;&gt;Node3</title>
<g id="a_edge2_Node000002_Node000003"><a xlink:title=" ">
<path fill="none" stroke="#63b8ff" d="M227.21,-9.5C235.52,-9.5 244.22,-9.5 252.52,-9.5"/>
<polygon fill="#63b8ff" stroke="#63b8ff" points="252.78,-13 262.78,-9.5 252.78,-6 252.78,-13"/>
</a>
</g>
</g>
</g>
</svg>
