<?xml version="1.0" encoding="UTF-8" standalone="no"?>
<!DOCTYPE svg PUBLIC "-//W3C//DTD SVG 1.1//EN"
 "http://www.w3.org/Graphics/SVG/1.1/DTD/svg11.dtd">
<!-- Generated by graphviz version 2.43.0 (0)
 -->
<!-- Title: src/vector.c Pages: 1 -->
<svg width="535pt" height="137pt"
 viewBox="0.00 0.00 534.50 137.00" xmlns="http://www.w3.org/2000/svg" xmlns:xlink="http://www.w3.org/1999/xlink">
<g id="graph0" class="graph" transform="scale(1 1) rotate(0) translate(4 133)">
<title>src/vector.c</title>
<!-- Node1 -->
<g id="Node000001" class="node">
<title>Node1</title>
<g id="a_Node000001"><a xlink:title="Implementation of the vector.">
<polygon fill="#999999" stroke="#666666" points="349,-129 269,-129 269,-110 349,-110 349,-129"/>
<text text-anchor="middle" x="309" y="-117" font-family="Mononoki" font-size="10.00">src/vector.c</text>
</a>
</g>
</g>
<!-- Node2 -->
<g id="Node000002" class="node">
<title>Node2</title>
<g id="a_Node000002"><a xlink:href="vector_8h.html" target="_top" xlink:title="Public interface of the vector.">
<polygon fill="white" stroke="#666666" points="141.5,-74 82.5,-74 82.5,-55 141.5,-55 141.5,-74"/>
<text text-anchor="middle" x="112" y="-62" font-family="Mononoki" font-size="10.00">vector.h</text>
</a>
</g>
</g>
<!-- Node1&#45;&gt;Node2 -->
<g id="edge1_Node000001_Node000002" class="edge">
<title>Node1&#45;&gt;Node2</title>
<g id="a_edge1_Node000001_Node000002"><a xlink:title=" ">
<path fill="none" stroke="#63b8ff" d="M277.35,-109.98C243.15,-100.78 188.59,-86.11 151.58,-76.15"/>
<polygon fill="#63b8ff" stroke="#63b8ff" points="152.21,-72.69 141.64,-73.47 150.39,-79.45 152.21,-72.69"/>
</a>
</g>
</g>
<!-- Node6 -->
<g id="Node000006" class="node">
<title>Node6</title>
<g id="a_Node000006"><a xlink:title=" ">
<polygon fill="#e0e0e0" stroke="#999999" points="224,-74 160,-74 160,-55 224,-55 224,-74"/>
<text text-anchor="middle" x="192" y="-62" font-family="Mononoki" font-size="10.00">memswap.h</text>
</a>
</g>
</g>
<!-- Node1&#45;&gt;Node6 -->
<g id="edge5_Node000001_Node000006" class="edge">
<title>Node1&#45;&gt;Node6</title>
<g id="a_edge5_Node000001_Node000006"><a xlink:title=" ">
<path fill="none" stroke="#63b8ff" d="M290.2,-109.98C271.38,-101.46 242.18,-88.23 220.5,-78.41"/>
<polygon fill="#63b8ff" stroke="#63b8ff" points="221.69,-75.11 211.14,-74.17 218.8,-81.48 221.69,-75.11"/>
</a>
</g>
</g>
<!-- Node7 -->
<g id="Node000007" class="node">
<title>Node7</title>
<g id="a_Node000007"><a xlink:title=" ">
<polygon fill="#e0e0e0" stroke="#999999" points="301.5,-74 242.5,-74 242.5,-55 301.5,-55 301.5,-74"/>
<text text-anchor="middle" x="272" y="-62" font-family="Mononoki" font-size="10.00">assert.h</text>
</a>
</g>
</g>
<!-- Node1&#45;&gt;Node7 -->
<g id="edge6_Node000001_Node000007" class="edge">
<title>Node1&#45;&gt;Node7</title>
<g id="a_edge6_Node000001_Node000007"><a xlink:title=" ">
<path fill="none" stroke="#63b8ff" d="M302.89,-109.75C297.72,-102.34 290.15,-91.5 283.81,-82.41"/>
<polygon fill="#63b8ff" stroke="#63b8ff" points="286.59,-80.29 278,-74.09 280.85,-84.29 286.59,-80.29"/>
</a>
</g>
</g>
<!-- Node8 -->
<g id="Node000008" class="node">
<title>Node8</title>
<g id="a_Node000008"><a xlink:title=" ">
<polygon fill="#e0e0e0" stroke="#999999" points="372.5,-74 319.5,-74 319.5,-55 372.5,-55 372.5,-74"/>
<text text-anchor="middle" x="346" y="-62" font-family="Mononoki" font-size="10.00">stdio.h</text>
</a>
</g>
</g>
<!-- Node1&#45;&gt;Node8 -->
<g id="edge7_Node000001_Node000008" class="edge">
<title>Node1&#45;&gt;Node8</title>
<g id="a_edge7_Node000001_Node000008"><a xlink:title=" ">
<path fill="none" stroke="#63b8ff" d="M315.11,-109.75C320.28,-102.34 327.85,-91.5 334.19,-82.41"/>
<polygon fill="#63b8ff" stroke="#63b8ff" points="337.15,-84.29 340,-74.09 331.41,-80.29 337.15,-84.29"/>
</a>
</g>
</g>
<!-- Node9 -->
<g id="Node000009" class="node">
<title>Node9</title>
<g id="a_Node000009"><a xlink:title=" ">
<polygon fill="#e0e0e0" stroke="#999999" points="449.5,-74 390.5,-74 390.5,-55 449.5,-55 449.5,-74"/>
<text text-anchor="middle" x="420" y="-62" font-family="Mononoki" font-size="10.00">stdlib.h</text>
</a>
</g>
</g>
<!-- Node1&#45;&gt;Node9 -->
<g id="edge8_Node000001_Node000009" class="edge">
<title>Node1&#45;&gt;Node9</title>
<g id="a_edge8_Node000001_Node000009"><a xlink:title=" ">
<path fill="none" stroke="#63b8ff" d="M326.83,-109.98C344.61,-101.5 372.15,-88.35 392.68,-78.54"/>
<polygon fill="#63b8ff" stroke="#63b8ff" points="394.33,-81.64 401.84,-74.17 391.31,-75.32 394.33,-81.64"/>
</a>
</g>
</g>
<!-- Node10 -->
<g id="Node000010" class="node">
<title>Node10</title>
<g id="a_Node000010"><a xlink:title=" ">
<polygon fill="#e0e0e0" stroke="#999999" points="526.5,-74 467.5,-74 467.5,-55 526.5,-55 526.5,-74"/>
<text text-anchor="middle" x="497" y="-62" font-family="Mononoki" font-size="10.00">string.h</text>
</a>
</g>
</g>
<!-- Node1&#45;&gt;Node10 -->
<g id="edge9_Node000001_Node000010" class="edge">
<title>Node1&#45;&gt;Node10</title>
<g id="a_edge9_Node000001_Node000010"><a xlink:title=" ">
<path fill="none" stroke="#63b8ff" d="M339.21,-109.98C371.33,-100.93 422.26,-86.57 457.53,-76.63"/>
<polygon fill="#63b8ff" stroke="#63b8ff" points="458.81,-79.9 467.49,-73.82 456.91,-73.16 458.81,-79.9"/>
</a>
</g>
</g>
<!-- Node3 -->
<g id="Node000003" class="node">
<title>Node3</title>
<g id="a_Node000003"><a xlink:title=" ">
<polygon fill="#e0e0e0" stroke="#999999" points="64,-19 0,-19 0,0 64,0 64,-19"/>
<text text-anchor="middle" x="32" y="-7" font-family="Mononoki" font-size="10.00">stdbool.h</text>
</a>
</g>
</g>
<!-- Node2&#45;&gt;Node3 -->
<g id="edge2_Node000002_Node000003" class="edge">
<title>Node2&#45;&gt;Node3</title>
<g id="a_edge2_Node000002_Node000003"><a xlink:title=" ">
<path fill="none" stroke="#63b8ff" d="M99.15,-54.98C86.86,-46.84 68.09,-34.41 53.52,-24.76"/>
<polygon fill="#63b8ff" stroke="#63b8ff" points="55.36,-21.78 45.09,-19.17 51.49,-27.61 55.36,-21.78"/>
</a>
</g>
</g>
<!-- Node4 -->
<g id="Node000004" class="node">
<title>Node4</title>
<g id="a_Node000004"><a xlink:title=" ">
<polygon fill="#e0e0e0" stroke="#999999" points="141.5,-19 82.5,-19 82.5,0 141.5,0 141.5,-19"/>
<text text-anchor="middle" x="112" y="-7" font-family="Mononoki" font-size="10.00">stddef.h</text>
</a>
</g>
</g>
<!-- Node2&#45;&gt;Node4 -->
<g id="edge3_Node000002_Node000004" class="edge">
<title>Node2&#45;&gt;Node4</title>
<g id="a_edge3_Node000002_Node000004"><a xlink:title=" ">
<path fill="none" stroke="#63b8ff" d="M112,-54.75C112,-47.8 112,-37.85 112,-29.13"/>
<polygon fill="#63b8ff" stroke="#63b8ff" points="115.5,-29.09 112,-19.09 108.5,-29.09 115.5,-29.09"/>
</a>
</g>
</g>
<!-- Node5 -->
<g id="Node000005" class="node">
<title>Node5</title>
<g id="a_Node000005"><a xlink:title=" ">
<polygon fill="#e0e0e0" stroke="#999999" points="234,-19 160,-19 160,0 234,0 234,-19"/>
<text text-anchor="middle" x="197" y="-7" font-family="Mononoki" font-size="10.00">sys/types.h</text>
</a>
</g>
</g>
<!-- Node2&#45;&gt;Node5 -->
<g id="edge4_Node000002_Node000005" class="edge">
<title>Node2&#45;&gt;Node5</title>
<g id="a_edge4_Node000002_Node000005"><a xlink:title=" ">
<path fill="none" stroke="#63b8ff" d="M125.66,-54.98C138.84,-46.77 159.03,-34.18 174.57,-24.49"/>
<polygon fill="#63b8ff" stroke="#63b8ff" points="176.46,-27.43 183.09,-19.17 172.76,-21.49 176.46,-27.43"/>
</a>
</g>
</g>
</g>
</svg>
