<?xml version="1.0" encoding="UTF-8" standalone="no"?>
<!DOCTYPE svg PUBLIC "-//W3C//DTD SVG 1.1//EN"
 "http://www.w3.org/Graphics/SVG/1.1/DTD/svg11.dtd">
<!-- Generated by graphviz version 2.43.0 (0)
 -->
<!-- Title: vector_resize Pages: 1 -->
<svg width="240pt" height="64pt"
 viewBox="0.00 0.00 240.00 64.00" xmlns="http://www.w3.org/2000/svg" xmlns:xlink="http://www.w3.org/1999/xlink">
<g id="graph0" class="graph" transform="scale(1 1) rotate(0) translate(4 60)">
<title>vector_resize</title>
<!-- Node1 -->
<g id="Node000001" class="node">
<title>Node1</title>
<g id="a_Node000001"><a xlink:title="Performs allocation resize.">
<polygon fill="#999999" stroke="#666666" points="82,-37 0,-37 0,-18 82,-18 82,-37"/>
<text text-anchor="middle" x="41" y="-25" font-family="Mononoki" font-size="10.00">vector_resize</text>
</a>
</g>
</g>
<!-- Node2 -->
<g id="Node000002" class="node">
<title>Node2</title>
<g id="a_Node000002"><a xlink:href="vector_8c.html#a50c131cdbcfc769f4bbe9a68912207ca" target="_top" xlink:title=" ">
<polygon fill="white" stroke="#666666" points="232,-56 118,-56 118,-37 232,-37 232,-56"/>
<text text-anchor="middle" x="175" y="-44" font-family="Mononoki" font-size="10.00">calculate_alloc_size</text>
</a>
</g>
</g>
<!-- Node1&#45;&gt;Node2 -->
<g id="edge1_Node000001_Node000002" class="edge">
<title>Node1&#45;&gt;Node2</title>
<g id="a_edge1_Node000001_Node000002"><a xlink:title=" ">
<path fill="none" stroke="#63b8ff" d="M82.32,-33.3C90.39,-34.46 99.06,-35.71 107.74,-36.96"/>
<polygon fill="#63b8ff" stroke="#63b8ff" points="107.49,-40.46 117.89,-38.42 108.49,-33.53 107.49,-40.46"/>
</a>
</g>
</g>
<!-- Node3 -->
<g id="Node000003" class="node">
<title>Node3</title>
<g id="a_Node000003"><a xlink:href="group__Allocation.html#ga6bc2c0ee8e64283e06259c3edc6c6022" target="_top" xlink:title="Reallocates already allocated memory chunk in order to change allocation size.">
<polygon fill="white" stroke="#666666" points="218,-19 132,-19 132,0 218,0 218,-19"/>
<text text-anchor="middle" x="175" y="-7" font-family="Mononoki" font-size="10.00">vector_realloc</text>
</a>
</g>
</g>
<!-- Node1&#45;&gt;Node3 -->
<g id="edge2_Node000001_Node000003" class="edge">
<title>Node1&#45;&gt;Node3</title>
<g id="a_edge2_Node000001_Node000003"><a xlink:title=" ">
<path fill="none" stroke="#63b8ff" d="M82.32,-22C94.65,-20.32 108.38,-18.45 121.4,-16.67"/>
<polygon fill="#63b8ff" stroke="#63b8ff" points="122.2,-20.1 131.64,-15.28 121.26,-13.16 122.2,-20.1"/>
</a>
</g>
</g>
</g>
</svg>
