<?xml version="1.0" encoding="UTF-8" standalone="no"?>
<!DOCTYPE svg PUBLIC "-//W3C//DTD SVG 1.1//EN"
 "http://www.w3.org/Graphics/SVG/1.1/DTD/svg11.dtd">
<!-- Generated by graphviz version 2.43.0 (0)
 -->
<!-- Title: vector_shift Pages: 1 -->
<svg width="302pt" height="46pt"
 viewBox="0.00 0.00 302.00 46.00" xmlns="http://www.w3.org/2000/svg" xmlns:xlink="http://www.w3.org/1999/xlink">
<g id="graph0" class="graph" transform="scale(1 1) rotate(0) translate(4 42)">
<title>vector_shift</title>
<!-- Node1 -->
<g id="Node000001" class="node">
<title>Node1</title>
<g id="a_Node000001"><a xlink:title="Shift range of elements.">
<polygon fill="#999999" stroke="#666666" points="74,-38 0,-38 0,-19 74,-19 74,-38"/>
<text text-anchor="middle" x="37" y="-26" font-family="Mononoki" font-size="10.00">vector_shift</text>
</a>
</g>
</g>
<!-- Node2 -->
<g id="Node000002" class="node">
<title>Node2</title>
<g id="a_Node000002"><a xlink:href="group__Vector__API.html#ga9437d9506a3b2799f595c88b82f160b3" target="_top" xlink:title="Returns pointer for the element at index.">
<polygon fill="white" stroke="#666666" points="294,-38 226,-38 226,-19 294,-19 294,-38"/>
<text text-anchor="middle" x="260" y="-26" font-family="Mononoki" font-size="10.00">vector_get</text>
</a>
</g>
</g>
<!-- Node1&#45;&gt;Node2 -->
<g id="edge1_Node000001_Node000002" class="edge">
<title>Node1&#45;&gt;Node2</title>
<g id="a_edge1_Node000001_Node000002"><a xlink:title=" ">
<path fill="none" stroke="#63b8ff" d="M74.49,-28.5C113.26,-28.5 174.52,-28.5 215.7,-28.5"/>
<polygon fill="#63b8ff" stroke="#63b8ff" points="215.71,-32 225.71,-28.5 215.71,-25 215.71,-32"/>
</a>
</g>
</g>
<!-- Node3 -->
<g id="Node000003" class="node">
<title>Node3</title>
<g id="a_Node000003"><a xlink:href="group__Vector__API.html#gaa94c547c9488b4f9dce5eb01067c2ae1" target="_top" xlink:title="Moves range of the vector elements to another location.">
<polygon fill="white" stroke="#666666" points="190,-19 110,-19 110,0 190,0 190,-19"/>
<text text-anchor="middle" x="150" y="-7" font-family="Mononoki" font-size="10.00">vector_move</text>
</a>
</g>
</g>
<!-- Node1&#45;&gt;Node3 -->
<g id="edge2_Node000001_Node000003" class="edge">
<title>Node1&#45;&gt;Node3</title>
<g id="a_edge2_Node000001_Node000003"><a xlink:title=" ">
<path fill="none" stroke="#63b8ff" d="M74.04,-22.33C82.23,-20.93 91.07,-19.42 99.7,-17.94"/>
<polygon fill="#63b8ff" stroke="#63b8ff" points="100.43,-21.37 109.69,-16.23 99.25,-14.47 100.43,-21.37"/>
</a>
</g>
</g>
<!-- Node3&#45;&gt;Node2 -->
<g id="edge3_Node000003_Node000002" class="edge">
<title>Node3&#45;&gt;Node2</title>
<g id="a_edge3_Node000003_Node000002"><a xlink:title=" ">
<path fill="none" stroke="#63b8ff" d="M190.3,-16.41C198.61,-17.88 207.44,-19.43 215.89,-20.92"/>
<polygon fill="#63b8ff" stroke="#63b8ff" points="215.5,-24.4 225.95,-22.69 216.71,-17.51 215.5,-24.4"/>
</a>
</g>
</g>
</g>
</svg>
