<?xml version="1.0" encoding="UTF-8" standalone="no"?>
<!DOCTYPE svg PUBLIC "-//W3C//DTD SVG 1.1//EN"
 "http://www.w3.org/Graphics/SVG/1.1/DTD/svg11.dtd">
<!-- Generated by graphviz version 2.43.0 (0)
 -->
<!-- Title: vector_binary_find Pages: 1 -->
<svg width="334pt" height="45pt"
 viewBox="0.00 0.00 334.00 45.00" xmlns="http://www.w3.org/2000/svg" xmlns:xlink="http://www.w3.org/1999/xlink">
<g id="graph0" class="graph" transform="scale(1 1) rotate(0) translate(4 41)">
<title>vector_binary_find</title>
<!-- Node1 -->
<g id="Node000001" class="node">
<title>Node1</title>
<g id="a_Node000001"><a xlink:title="Run binary search on the vector.">
<polygon fill="#999999" stroke="#666666" points="111,-19 0,-19 0,0 111,0 111,-19"/>
<text text-anchor="middle" x="55.5" y="-7" font-family="Mononoki" font-size="10.00">vector_binary_find</text>
</a>
</g>
</g>
<!-- Node2 -->
<g id="Node000002" class="node">
<title>Node2</title>
<g id="a_Node000002"><a xlink:href="vector_8c.html#afec86be827dcdde96c62016b77630a7c" target="_top" xlink:title="Performs binary search on a vectors range.">
<polygon fill="white" stroke="#666666" points="221,-19 147,-19 147,0 221,0 221,-19"/>
<text text-anchor="middle" x="184" y="-7" font-family="Mononoki" font-size="10.00">binary_find</text>
</a>
</g>
</g>
<!-- Node1&#45;&gt;Node2 -->
<g id="edge1_Node000001_Node000002" class="edge">
<title>Node1&#45;&gt;Node2</title>
<g id="a_edge1_Node000001_Node000002"><a xlink:title=" ">
<path fill="none" stroke="#63b8ff" d="M111.25,-9.5C119.7,-9.5 128.36,-9.5 136.6,-9.5"/>
<polygon fill="#63b8ff" stroke="#63b8ff" points="136.78,-13 146.78,-9.5 136.78,-6 136.78,-13"/>
</a>
</g>
</g>
<!-- Node2&#45;&gt;Node2 -->
<g id="edge2_Node000002_Node000002" class="edge">
<title>Node2&#45;&gt;Node2</title>
<g id="a_edge2_Node000002_Node000002"><a xlink:title=" ">
<path fill="none" stroke="#63b8ff" d="M167.66,-19.08C159.71,-27.73 165.16,-37 184,-37 195.77,-37 202.32,-33.38 203.63,-28.55"/>
<polygon fill="#63b8ff" stroke="#63b8ff" points="206.93,-27.38 200.34,-19.08 200.31,-29.68 206.93,-27.38"/>
</a>
</g>
</g>
<!-- Node3 -->
<g id="Node000003" class="node">
<title>Node3</title>
<g id="a_Node000003"><a xlink:href="group__Vector__API.html#ga9437d9506a3b2799f595c88b82f160b3" target="_top" xlink:title="Returns pointer for the element at index.">
<polygon fill="white" stroke="#666666" points="326,-19 257,-19 257,0 326,0 326,-19"/>
<text text-anchor="middle" x="291.5" y="-7" font-family="Mononoki" font-size="10.00">vector_get</text>
</a>
</g>
</g>
<!-- Node2&#45;&gt;Node3 -->
<g id="edge3_Node000002_Node000003" class="edge">
<title>Node2&#45;&gt;Node3</title>
<g id="a_edge3_Node000002_Node000003"><a xlink:title=" ">
<path fill="none" stroke="#63b8ff" d="M221.01,-9.5C229.24,-9.5 238.08,-9.5 246.61,-9.5"/>
<polygon fill="#63b8ff" stroke="#63b8ff" points="246.78,-13 256.78,-9.5 246.78,-6 246.78,-13"/>
</a>
</g>
</g>
</g>
</svg>
