<?xml version="1.0" encoding="UTF-8" standalone="no"?>
<!DOCTYPE svg PUBLIC "-//W3C//DTD SVG 1.1//EN"
 "http://www.w3.org/Graphics/SVG/1.1/DTD/svg11.dtd">
<!-- Generated by graphviz version 2.43.0 (0)
 -->
<!-- Title: Vector API Pages: 1 -->
<svg width="182pt" height="64pt"
 viewBox="0.00 0.00 182.00 64.00" xmlns="http://www.w3.org/2000/svg" xmlns:xlink="http://www.w3.org/1999/xlink">
<g id="graph0" class="graph" transform="scale(1 1) rotate(0) translate(4 60)">
<title>Vector API</title>
<!-- Node2 -->
<g id="Node000002" class="node">
<title>Node2</title>
<g id="a_Node000002"><a xlink:href="group__Allocation.html" target="_top" xlink:title="Allocator functions.">
<polygon fill="white" stroke="#666666" points="174,-56 105,-56 105,-37 174,-37 174,-56"/>
<text text-anchor="middle" x="139.5" y="-44" font-family="Mononoki" font-size="10.00">Allocation</text>
</a>
</g>
</g>
<!-- Node3 -->
<g id="Node000003" class="node">
<title>Node3</title>
<g id="a_Node000003"><a xlink:href="group__Utilities.html" target="_top" xlink:title="Commonly used internally and by inherited classes.">
<polygon fill="white" stroke="#666666" points="171.5,-19 107.5,-19 107.5,0 171.5,0 171.5,-19"/>
<text text-anchor="middle" x="139.5" y="-7" font-family="Mononoki" font-size="10.00">Utilities</text>
</a>
</g>
</g>
<!-- Node1 -->
<g id="Node000001" class="node">
<title>Node1</title>
<g id="a_Node000001"><a xlink:title="Main vectors methods.">
<polygon fill="#999999" stroke="#666666" points="69,-37 0,-37 0,-18 69,-18 69,-37"/>
<text text-anchor="middle" x="34.5" y="-25" font-family="Mononoki" font-size="10.00">Vector API</text>
</a>
</g>
</g>
<!-- Node1&#45;&gt;Node2 -->
<g id="edge1" class="edge">
<title>Node1&#45;&gt;Node2</title>
<path fill="none" stroke="black" d="M79.08,-35.54C87.65,-37.12 96.51,-38.75 104.7,-40.26"/>
<polygon fill="black" stroke="black" points="79.7,-32.09 69.23,-33.72 78.43,-38.98 79.7,-32.09"/>
</g>
<!-- Node1&#45;&gt;Node3 -->
<g id="edge2" class="edge">
<title>Node1&#45;&gt;Node3</title>
<path fill="none" stroke="black" d="M79.31,-19.84C88.79,-18.19 98.62,-16.47 107.49,-14.92"/>
<polygon fill="black" stroke="black" points="78.47,-16.44 69.23,-21.61 79.68,-23.33 78.47,-16.44"/>
</g>
</g>
</svg>
