<?xml version="1.0" encoding="UTF-8" standalone="no"?>
<!DOCTYPE svg PUBLIC "-//W3C//DTD SVG 1.1//EN"
 "http://www.w3.org/Graphics/SVG/1.1/DTD/svg11.dtd">
<!-- Generated by graphviz version 2.43.0 (0)
 -->
<!-- Title: Vector API Pages: 1 -->
<svg width="175pt" height="64pt"
 viewBox="0.00 0.00 175.00 64.00" xmlns="http://www.w3.org/2000/svg" xmlns:xlink="http://www.w3.org/1999/xlink">

<svg id="main" version="1.1" xmlns="http://www.w3.org/2000/svg" xmlns:xlink="http://www.w3.org/1999/xlink" xml:space="preserve" onload="init(evt)">
<style type="text/css"><![CDATA[
.node, .edge {opacity: 0.7;}
.node.selected, .edge.selected {opacity: 1;}
.edge:hover path { stroke: red; }
.edge:hover polygon { stroke: red; fill: red; }
]]></style>
<script type="application/ecmascript" xlink:href="svg.min.js"/>
<svg id="graph" class="graph">
<g id="graph0" class="graph" transform="scale(1 1) rotate(0) translate(4 60)">
<title>Vector API</title>
<!-- Node2 -->
<g id="Node000002" class="node">
<title>Node2</title>
<g id="a_Node000002"><a xlink:href="group__Allocation.html" target="_top" xlink:title="Allocator functions.">
<polygon fill="white" stroke="#666666" points="167,-56 102,-56 102,-37 167,-37 167,-56"/>
<text text-anchor="middle" x="134.5" y="-44" font-family="Mononoki" font-size="10.00">Allocation</text>
</a>
</g>
</g>
<!-- Node3 -->
<g id="Node000003" class="node">
<title>Node3</title>
<g id="a_Node000003"><a xlink:href="group__Utilities.html" target="_top" xlink:title="Commonly used internally and by inherited classes.">
<polygon fill="white" stroke="#666666" points="162,-19 107,-19 107,0 162,0 162,-19"/>
<text text-anchor="middle" x="134.5" y="-7" font-family="Mononoki" font-size="10.00">Utilities</text>
</a>
</g>
</g>
<!-- Node1 -->
<g id="Node000001" class="node">
<title>Node1</title>
<g id="a_Node000001"><a xlink:title="Main vectors methods.">
<polygon fill="#999999" stroke="#666666" points="66,-37 0,-37 0,-18 66,-18 66,-37"/>
<text text-anchor="middle" x="33" y="-25" font-family="Mononoki" font-size="10.00">Vector API</text>
</a>
</g>
</g>
<!-- Node1&#45;&gt;Node2 -->
<g id="edge1" class="edge">
<title>Node1&#45;&gt;Node2</title>
<path fill="none" stroke="black" d="M75.99,-35.52C84.66,-37.17 93.65,-38.89 101.87,-40.46"/>
<polygon fill="black" stroke="black" points="76.51,-32.05 66.03,-33.62 75.2,-38.93 76.51,-32.05"/>
</g>
<!-- Node1&#45;&gt;Node3 -->
<g id="edge2" class="edge">
<title>Node1&#45;&gt;Node3</title>
<path fill="none" stroke="black" d="M75.88,-19.92C86.37,-18.03 97.34,-16.04 106.86,-14.32"/>
<polygon fill="black" stroke="black" points="75.25,-16.48 66.03,-21.71 76.49,-23.37 75.25,-16.48"/>
</g>
</g>
</svg>
</svg>

<style type='text/css'>
<![CDATA[
[data-mouse-over-selected='false'] { opacity: 0.7; }
[data-mouse-over-selected='true']  { opacity: 1.0; }
]]>
</style>
<script type="application/ecmascript"><![CDATA[
document.addEventListener('DOMContentLoaded', (event) => {
  highlightEdges();
  highlightAdjacentNodes();
});
]]></script>
</svg>
