<?xml version="1.0" encoding="UTF-8" standalone="no"?>
<!DOCTYPE svg PUBLIC "-//W3C//DTD SVG 1.1//EN"
 "http://www.w3.org/Graphics/SVG/1.1/DTD/svg11.dtd">
<!-- Generated by graphviz version 2.43.0 (0)
 -->
<!-- Title: vector_binary_find_index Pages: 1 -->
<svg width="366pt" height="51pt"
 viewBox="0.00 0.00 366.00 50.50" xmlns="http://www.w3.org/2000/svg" xmlns:xlink="http://www.w3.org/1999/xlink">

<svg id="main" version="1.1" xmlns="http://www.w3.org/2000/svg" xmlns:xlink="http://www.w3.org/1999/xlink" xml:space="preserve" onload="init(evt)">
<style type="text/css"><![CDATA[
.node, .edge {opacity: 0.7;}
.node.selected, .edge.selected {opacity: 1;}
.edge:hover path { stroke: red; }
.edge:hover polygon { stroke: red; fill: red; }
]]></style>
<script type="application/ecmascript" xlink:href="svg.min.js"/>
<svg id="graph" class="graph">
<g id="graph0" class="graph" transform="scale(1 1) rotate(0) translate(4 46.5)">
<title>vector_binary_find_index</title>
<!-- Node1 -->
<g id="Node000001" class="node">
<title>Node1</title>
<g id="a_Node000001"><a xlink:title="Run binary search on the vector.">
<polygon fill="#999999" stroke="#666666" points="111,-30 0,-30 0,0 111,0 111,-30"/>
<text text-anchor="start" x="8" y="-18" font-family="Mononoki" font-size="10.00">vector_binary_find</text>
<text text-anchor="middle" x="55.5" y="-7" font-family="Mononoki" font-size="10.00">_index</text>
</a>
</g>
</g>
<!-- Node2 -->
<g id="Node000002" class="node">
<title>Node2</title>
<g id="a_Node000002"><a xlink:href="vector_8c.html#a162bfa9cf07c25a5eb6c883820a68e99" target="_top" xlink:title="Performs binary search on a vectors range.">
<polygon fill="white" stroke="#666666" points="253,-24.5 147,-24.5 147,-5.5 253,-5.5 253,-24.5"/>
<text text-anchor="middle" x="200" y="-12.5" font-family="Mononoki" font-size="10.00">binary_find_index</text>
</a>
</g>
</g>
<!-- Node1&#45;&gt;Node2 -->
<g id="edge1_Node000001_Node000002" class="edge">
<title>Node1&#45;&gt;Node2</title>
<g id="a_edge1_Node000001_Node000002"><a xlink:title=" ">
<path fill="none" stroke="#63b8ff" d="M111.19,-15C119.45,-15 128.02,-15 136.43,-15"/>
<polygon fill="#63b8ff" stroke="#63b8ff" points="136.57,-18.5 146.57,-15 136.57,-11.5 136.57,-18.5"/>
</a>
</g>
</g>
<!-- Node2&#45;&gt;Node2 -->
<g id="edge2_Node000002_Node000002" class="edge">
<title>Node2&#45;&gt;Node2</title>
<g id="a_edge2_Node000002_Node000002"><a xlink:title=" ">
<path fill="none" stroke="#63b8ff" d="M181.2,-24.58C172.05,-33.23 178.32,-42.5 200,-42.5 213.55,-42.5 221.08,-38.88 222.59,-34.05"/>
<polygon fill="#63b8ff" stroke="#63b8ff" points="225.77,-32.57 218.8,-24.58 219.27,-35.17 225.77,-32.57"/>
</a>
</g>
</g>
<!-- Node3 -->
<g id="Node000003" class="node">
<title>Node3</title>
<g id="a_Node000003"><a xlink:href="group__Vector__API.html#ga9437d9506a3b2799f595c88b82f160b3" target="_top" xlink:title="Returns pointer for the element at index.">
<polygon fill="white" stroke="#666666" points="358,-24.5 289,-24.5 289,-5.5 358,-5.5 358,-24.5"/>
<text text-anchor="middle" x="323.5" y="-12.5" font-family="Mononoki" font-size="10.00">vector_get</text>
</a>
</g>
</g>
<!-- Node2&#45;&gt;Node3 -->
<g id="edge3_Node000002_Node000003" class="edge">
<title>Node2&#45;&gt;Node3</title>
<g id="a_edge3_Node000002_Node000003"><a xlink:title=" ">
<path fill="none" stroke="#63b8ff" d="M253.23,-15C261.73,-15 270.46,-15 278.74,-15"/>
<polygon fill="#63b8ff" stroke="#63b8ff" points="278.92,-18.5 288.92,-15 278.92,-11.5 278.92,-18.5"/>
</a>
</g>
</g>
</g>
</svg>
</svg>

<style type='text/css'>
<![CDATA[
[data-mouse-over-selected='false'] { opacity: 0.7; }
[data-mouse-over-selected='true']  { opacity: 1.0; }
]]>
</style>
<script type="application/ecmascript"><![CDATA[
document.addEventListener('DOMContentLoaded', (event) => {
  highlightEdges();
  highlightAdjacentNodes();
});
]]></script>
</svg>
