<?xml version="1.0" encoding="UTF-8" standalone="no"?>
<!DOCTYPE svg PUBLIC "-//W3C//DTD SVG 1.1//EN"
 "http://www.w3.org/Graphics/SVG/1.1/DTD/svg11.dtd">
<!-- Generated by graphviz version 2.43.0 (0)
 -->
<!-- Title: src/vector.c Pages: 1 -->
<svg width="532pt" height="137pt"
 viewBox="0.00 0.00 531.50 137.00" xmlns="http://www.w3.org/2000/svg" xmlns:xlink="http://www.w3.org/1999/xlink">
<g id="graph0" class="graph" transform="scale(1 1) rotate(0) translate(4 133)">
<title>src/vector.c</title>
<!-- Node1 -->
<g id="Node000001" class="node">
<title>Node1</title>
<g id="a_Node000001"><a xlink:title="Implementation of the vector.">
<polygon fill="#999999" stroke="#666666" points="356,-129 284,-129 284,-110 356,-110 356,-129"/>
<text text-anchor="middle" x="320" y="-117" font-family="Mononoki" font-size="10.00">src/vector.c</text>
</a>
</g>
</g>
<!-- Node2 -->
<g id="Node000002" class="node">
<title>Node2</title>
<g id="a_Node000002"><a xlink:href="vector_8h.html" target="_top" xlink:title="Public interface of the vector.">
<polygon fill="white" stroke="#666666" points="143,-74 87,-74 87,-55 143,-55 143,-74"/>
<text text-anchor="middle" x="115" y="-62" font-family="Mononoki" font-size="10.00">vector.h</text>
</a>
</g>
</g>
<!-- Node1&#45;&gt;Node2 -->
<g id="edge1_Node000001_Node000002" class="edge">
<title>Node1&#45;&gt;Node2</title>
<g id="a_edge1_Node000001_Node000002"><a xlink:title=" ">
<path fill="none" stroke="#63b8ff" d="M287.06,-109.98C250.49,-100.53 191.55,-85.29 153.04,-75.33"/>
<polygon fill="#63b8ff" stroke="#63b8ff" points="153.79,-71.91 143.24,-72.8 152.04,-78.69 153.79,-71.91"/>
</a>
</g>
</g>
<!-- Node6 -->
<g id="Node000006" class="node">
<title>Node6</title>
<g id="a_Node000006"><a xlink:href="memswap_8h_source.html" target="_top" xlink:title=" ">
<polygon fill="white" stroke="#666666" points="238.5,-74 161.5,-74 161.5,-55 238.5,-55 238.5,-74"/>
<text text-anchor="middle" x="200" y="-62" font-family="Mononoki" font-size="10.00">memswap.h</text>
</a>
</g>
</g>
<!-- Node1&#45;&gt;Node6 -->
<g id="edge5_Node000001_Node000006" class="edge">
<title>Node1&#45;&gt;Node6</title>
<g id="a_edge5_Node000001_Node000006"><a xlink:title=" ">
<path fill="none" stroke="#63b8ff" d="M300.72,-109.98C281.33,-101.42 251.19,-88.11 228.93,-78.28"/>
<polygon fill="#63b8ff" stroke="#63b8ff" points="230.19,-75.01 219.63,-74.17 227.36,-81.41 230.19,-75.01"/>
</a>
</g>
</g>
<!-- Node7 -->
<g id="Node000007" class="node">
<title>Node7</title>
<g id="a_Node000007"><a xlink:title=" ">
<polygon fill="#e0e0e0" stroke="#999999" points="313,-74 257,-74 257,-55 313,-55 313,-74"/>
<text text-anchor="middle" x="285" y="-62" font-family="Mononoki" font-size="10.00">assert.h</text>
</a>
</g>
</g>
<!-- Node1&#45;&gt;Node7 -->
<g id="edge7_Node000001_Node000007" class="edge">
<title>Node1&#45;&gt;Node7</title>
<g id="a_edge7_Node000001_Node000007"><a xlink:title=" ">
<path fill="none" stroke="#63b8ff" d="M314.22,-109.75C309.38,-102.42 302.32,-91.73 296.36,-82.7"/>
<polygon fill="#63b8ff" stroke="#63b8ff" points="299.1,-80.5 290.67,-74.09 293.26,-84.36 299.1,-80.5"/>
</a>
</g>
</g>
<!-- Node8 -->
<g id="Node000008" class="node">
<title>Node8</title>
<g id="a_Node000008"><a xlink:title=" ">
<polygon fill="#e0e0e0" stroke="#999999" points="381,-74 331,-74 331,-55 381,-55 381,-74"/>
<text text-anchor="middle" x="356" y="-62" font-family="Mononoki" font-size="10.00">stdio.h</text>
</a>
</g>
</g>
<!-- Node1&#45;&gt;Node8 -->
<g id="edge8_Node000001_Node000008" class="edge">
<title>Node1&#45;&gt;Node8</title>
<g id="a_edge8_Node000001_Node000008"><a xlink:title=" ">
<path fill="none" stroke="#63b8ff" d="M325.94,-109.75C330.98,-102.34 338.34,-91.5 344.51,-82.41"/>
<polygon fill="#63b8ff" stroke="#63b8ff" points="347.44,-84.33 350.17,-74.09 341.65,-80.39 347.44,-84.33"/>
</a>
</g>
</g>
<!-- Node9 -->
<g id="Node000009" class="node">
<title>Node9</title>
<g id="a_Node000009"><a xlink:title=" ">
<polygon fill="#e0e0e0" stroke="#999999" points="452.5,-74 399.5,-74 399.5,-55 452.5,-55 452.5,-74"/>
<text text-anchor="middle" x="426" y="-62" font-family="Mononoki" font-size="10.00">stdlib.h</text>
</a>
</g>
</g>
<!-- Node1&#45;&gt;Node9 -->
<g id="edge9_Node000001_Node000009" class="edge">
<title>Node1&#45;&gt;Node9</title>
<g id="a_edge9_Node000001_Node000009"><a xlink:title=" ">
<path fill="none" stroke="#63b8ff" d="M337.03,-109.98C353.93,-101.54 380.06,-88.47 399.64,-78.68"/>
<polygon fill="#63b8ff" stroke="#63b8ff" points="401.28,-81.77 408.66,-74.17 398.15,-75.51 401.28,-81.77"/>
</a>
</g>
</g>
<!-- Node10 -->
<g id="Node000010" class="node">
<title>Node10</title>
<g id="a_Node000010"><a xlink:title=" ">
<polygon fill="#e0e0e0" stroke="#999999" points="523.5,-74 470.5,-74 470.5,-55 523.5,-55 523.5,-74"/>
<text text-anchor="middle" x="497" y="-62" font-family="Mononoki" font-size="10.00">string.h</text>
</a>
</g>
</g>
<!-- Node1&#45;&gt;Node10 -->
<g id="edge10_Node000001_Node000010" class="edge">
<title>Node1&#45;&gt;Node10</title>
<g id="a_edge10_Node000001_Node000010"><a xlink:title=" ">
<path fill="none" stroke="#63b8ff" d="M348.44,-109.98C378.9,-100.86 427.35,-86.36 460.58,-76.41"/>
<polygon fill="#63b8ff" stroke="#63b8ff" points="461.79,-79.7 470.37,-73.47 459.79,-72.99 461.79,-79.7"/>
</a>
</g>
</g>
<!-- Node3 -->
<g id="Node000003" class="node">
<title>Node3</title>
<g id="a_Node000003"><a xlink:title=" ">
<polygon fill="#e0e0e0" stroke="#999999" points="62,-19 0,-19 0,0 62,0 62,-19"/>
<text text-anchor="middle" x="31" y="-7" font-family="Mononoki" font-size="10.00">stdbool.h</text>
</a>
</g>
</g>
<!-- Node2&#45;&gt;Node3 -->
<g id="edge2_Node000002_Node000003" class="edge">
<title>Node2&#45;&gt;Node3</title>
<g id="a_edge2_Node000002_Node000003"><a xlink:title=" ">
<path fill="none" stroke="#63b8ff" d="M101.5,-54.98C88.6,-46.84 68.9,-34.41 53.6,-24.76"/>
<polygon fill="#63b8ff" stroke="#63b8ff" points="55.07,-21.55 44.74,-19.17 51.33,-27.47 55.07,-21.55"/>
</a>
</g>
</g>
<!-- Node4 -->
<g id="Node000004" class="node">
<title>Node4</title>
<g id="a_Node000004"><a xlink:title=" ">
<polygon fill="#e0e0e0" stroke="#999999" points="227,-19 171,-19 171,0 227,0 227,-19"/>
<text text-anchor="middle" x="199" y="-7" font-family="Mononoki" font-size="10.00">stddef.h</text>
</a>
</g>
</g>
<!-- Node2&#45;&gt;Node4 -->
<g id="edge3_Node000002_Node000004" class="edge">
<title>Node2&#45;&gt;Node4</title>
<g id="a_edge3_Node000002_Node000004"><a xlink:title=" ">
<path fill="none" stroke="#63b8ff" d="M128.5,-54.98C141.4,-46.84 161.1,-34.41 176.4,-24.76"/>
<polygon fill="#63b8ff" stroke="#63b8ff" points="178.67,-27.47 185.26,-19.17 174.93,-21.55 178.67,-27.47"/>
</a>
</g>
</g>
<!-- Node5 -->
<g id="Node000005" class="node">
<title>Node5</title>
<g id="a_Node000005"><a xlink:title=" ">
<polygon fill="#e0e0e0" stroke="#999999" points="152,-19 80,-19 80,0 152,0 152,-19"/>
<text text-anchor="middle" x="116" y="-7" font-family="Mononoki" font-size="10.00">sys/types.h</text>
</a>
</g>
</g>
<!-- Node2&#45;&gt;Node5 -->
<g id="edge4_Node000002_Node000005" class="edge">
<title>Node2&#45;&gt;Node5</title>
<g id="a_edge4_Node000002_Node000005"><a xlink:title=" ">
<path fill="none" stroke="#63b8ff" d="M115.17,-54.75C115.3,-47.8 115.48,-37.85 115.65,-29.13"/>
<polygon fill="#63b8ff" stroke="#63b8ff" points="119.15,-29.15 115.84,-19.09 112.15,-29.02 119.15,-29.15"/>
</a>
</g>
</g>
<!-- Node6&#45;&gt;Node4 -->
<g id="edge6_Node000006_Node000004" class="edge">
<title>Node6&#45;&gt;Node4</title>
<g id="a_edge6_Node000006_Node000004"><a xlink:title=" ">
<path fill="none" stroke="#63b8ff" d="M199.83,-54.75C199.7,-47.8 199.52,-37.85 199.35,-29.13"/>
<polygon fill="#63b8ff" stroke="#63b8ff" points="202.85,-29.02 199.16,-19.09 195.85,-29.15 202.85,-29.02"/>
</a>
</g>
</g>
</g>
</svg>
